<?xml version="1.0" standalone="no"?><!DOCTYPE svg PUBLIC "-//W3C//DTD SVG 1.1//EN" "http://www.w3.org/Graphics/SVG/1.1/DTD/svg11.dtd"><svg t="1751211989203" class="icon" viewBox="0 0 1024 1024" version="1.1" xmlns="http://www.w3.org/2000/svg" p-id="3438" xmlns:xlink="http://www.w3.org/1999/xlink" width="32" height="32"><path d="M708.266667 552.533333l0.853333 0.768h-1.664l0.853333-0.810666z m-46.208 42.112l-0.853334 1.578667 2.56 1.578667 1.706667-1.578667-1.706667-4.778667-1.706666 3.2z m65.578666-58.837333l1.706667 0.810667-0.853333-1.621334-0.853334 0.853334z m-110.933333 81.066667v-1.621334l-0.853333 0.810667 0.853333 0.810667z m131.114667-105.685334l3.370666 0.768h0.810667l-1.706667-1.578666-2.474666 0.810666z m-17.664-223.402666l-0.853334-1.578667-2.474666-0.810667-1.706667-3.157333-0.853333 5.546667 1.706666 0.810666 4.181334-0.810666z m-9.216 24.661333l3.328 0.810667-0.853334-3.2-4.181333-0.810667 0.853333 1.621333 0.853334 1.578667z m4.181333 7.936l1.706667 2.389333 0.853333-3.968-1.706667-3.968-1.706666-0.768-0.853334 1.578667-0.853333 1.621333 1.706667 1.578667-1.706667 0.810667 2.56 0.725333z m-5.034667-4.778667h-1.706666l-0.853334 2.389334h0.853334l1.706666-2.389334z m15.957334-53.248v2.389334l1.706666-0.768-1.706666-1.621334z m8.405333 1.621334V261.546667l-2.517333-1.621334 0.853333 3.2 1.706667 0.810667z m-7.552 3.968l-3.370667-0.810667-2.474666 3.968 0.853333 0.810667 4.992-3.968z m-21.034667 22.229333h-1.706666l0.853333 0.810667 0.853333-0.810667z m-2.517333 20.736l-3.370667 0.768v2.389333l2.56 1.621334 0.853334-4.778667z m32-53.333333L743.637333 256l-1.706666 2.389333 0.853333 0.810667 2.56-1.621333z m-30.293333 42.154666l-0.853334 0.768 0.853334 0.810667v-1.578667z m-21.034667 38.954667l0.853333-2.389333h-2.56l0.853334 1.578666 0.853333 0.810667z m21.930667-27.008v-0.810667l-1.706667 2.389334h1.706667v-1.578667z m94.122666 53.248l-2.517333 0.768 0.853333 0.810667 1.706667-1.578667zM746.24 305.28l0.853333 0.810667 0.853334-0.810667-2.56-1.578667 0.853333 1.578667z m-158.122667 112.896l1.237334 0.554667-0.384-1.365334-0.853334 0.810667z m1.237334 0.554667l0.426666 1.834666v-1.621333l-0.426666-0.213333z m292.224-45.056h3.328l-3.328-1.621334-1.706667 0.810667 1.706667 0.810667zM938.666667 386.389333l-3.370667 3.157334-0.853333-1.578667h-3.328l-5.888 4.778667v1.578666l2.517333-0.810666-4.224 5.546666 0.853333 1.621334-1.706666 0.810666v2.389334h2.56l1.706666 5.546666 2.474667 1.578667-0.853333 1.621333-5.034667 2.389334 1.706667 1.578666-0.853334 1.578667-10.069333 0.810667-1.706667 7.168 0.853334 3.157333-2.517334 3.2 4.181334 0.768 8.405333-2.389333 0.853333 1.621333-3.370666 2.389333-0.597334 2.901334 1.450667 3.413333-1.706667 1.621333v5.546667l-3.413333 3.157333h-0.64l-1.024 0.810667-1.706667-0.810667v-3.157333h-5.034666l-0.853334 0.768 4.266667 4.010667-0.853333 0.768-5.930667 1.621333-2.517333-0.810667v2.389334l-4.181334 2.389333-0.853333-1.578667-0.853333 1.578667-6.656-1.578667-1.706667 0.810667-3.328-1.621333-5.077333 0.810666 1.706666-3.2-0.853333-3.968-2.517333 1.621334-4.224-1.664 2.56-6.357334-3.413334 0.810667-1.664 3.157333h-2.56l-3.328 4.778667-2.56-10.325333h-3.328l-2.517333 2.389333-20.992 7.936-0.853333 4.778667-14.293334 5.546666 2.56 9.557334-5.930666-3.2 0.853333-2.346667h-5.034667l1.706667 2.389333-0.341333 0.853334 0.298666 0.768h-0.554666l-0.256 0.768-3.413334-0.768 1.706667-1.621334h-3.370667l-1.706666-3.157333-2.304-0.768-0.170667 0.213333v0.554667l-2.517333 2.346667-6.741334 1.621333-0.853333 1.578667h1.706667l0.853333 1.578666-1.706667 2.389334h-2.517333l-1.706667-2.389334-5.845333 1.621334-6.741333 4.778666-1.706667-0.810666-3.328 2.389333h-3.328l-9.258667 5.546667-5.034666 4.778666-8.448-0.810666-3.328-2.389334 0.853333-2.389333-5.077333-1.578667-3.370667 2.389334 3.370667 0.810666 0.853333 3.157334 2.517333 1.578666 0.853334-0.768 5.034666 1.578667 1.706667 2.389333-3.413333 3.968v2.389334l1.706666 1.578666-2.56 4.010667h-4.181333l1.706667 3.157333h1.706666l-5.077333 3.968 0.853333 1.578667h-4.266666v-5.546667l-2.517334-1.578666 0.853334-3.2-1.706667-0.768-7.552 0.768 0.853333 2.389333-1.706666 1.578667-1.706667-0.768-4.181333 5.546666 5.034666 6.4v1.578667l-8.490666 0.725333-0.725334 6.4 3.370667-0.768-0.853333 4.778667 2.517333 9.514667-0.853333 0.810666 2.56 3.157334-0.853334 0.810666h-0.426666l-1.28 0.768h-3.797334l-1.28 0.810667-3.328-0.810667-1.706666 2.389334-3.328-1.578667-0.853334 1.578667-1.706666-0.768v2.389333h-7.552l-5.888 4.778667h-4.181334l0.853334-0.810667-5.077334 1.578667-3.370666-1.578667-3.328 1.578667 5.034666-11.093334 4.181334-5.589333-0.853334-2.389333-4.181333-4.778667-3.328 1.621333 2.517333 3.157334-0.853333 1.578666-2.56 0.810667-2.474667-0.810667v-1.578666l-4.224 0.768-1.706666-2.389334-2.474667 0.810667-4.224 3.968v3.968l-1.706667 1.621333h-2.517333l1.706667 3.157334 3.370666 0.810666 3.328 3.968 6.741334 0.768-1.706667 1.621334 0.853333 2.389333-4.138666 3.968h1.706666l5.034667-3.968 0.853333 1.578667-2.56 3.157333 0.853334 0.768 4.181333-3.968h1.706667v5.546667l-5.077334 0.853333-3.370666 3.157333-3.328 6.4h-3.370667l2.517333-5.546666 2.56-0.810667-0.853333-0.768-1.706667 1.578667-3.370666 3.157333h-3.413334l-0.853333 2.389333-4.181333 0.810667-1.621334 1.536-3.370666 5.589333 1.706666 5.546667-4.224 8.789333h-3.370666l0.853333-2.389333-2.56-0.810667 0.853333-1.578666-4.181333-1.621334-0.853333 0.810667-0.810667 2.389333 3.370667 1.578667v1.578667l-4.224 4.778666 1.706666 4.778667-3.370666 0.810667-2.517334 3.157333-3.370666-2.389333-0.853334 0.810666-0.810666-3.2-3.370667 3.2 0.853333 4.778667-1.706666 0.768-0.853334-1.578667-0.810666 1.578667-1.706667-1.578667-0.853333-3.968h-3.328l-3.370667 3.157334-2.048 0.512-0.426667 0.298666v2.389334l-5.12 15.104-2.474666 1.578666-1.706667 3.968v2.389334l1.706667 0.810666-1.706667 2.389334-3.370667 1.578666-0.853333 2.389334h1.706667l-1.706667 0.810666v3.157334l-2.474667-3.157334h-1.706666l-8.405334 7.936-2.56 11.093334h1.706667v1.621333h-1.706667l-0.810666 1.621333 4.224 2.389334v2.346666l-1.706667-0.768-4.181333 3.968 0.853333 0.810667h-2.56l-0.853333-1.621333-5.034667 0.810666-1.706667-4.778666-5.034666-0.810667-2.517334 2.389333-1.706666-0.768-3.328 0.768-3.370667 0.810667-3.370667 5.546667h-11.818666l-5.888 1.621333-4.181334-0.810667-5.034666 3.2v9.514667l-5.845334 8.746667-0.853333 3.968-3.328 0.768 1.706667 1.621333-0.853334 3.968h-4.266666l-0.853334 3.157333-1.706666 0.810667 2.56 3.157333 2.517333-0.768 2.517333 2.389334-5.034666 3.968h-3.328l-2.56 1.621333-3.328-2.389333-1.706667 1.578666-3.413333-1.621333-0.810667-2.389333-4.181333 1.621333-3.370667-0.810667-0.853333 2.389334-5.888 2.389333-0.853334 1.578667 1.706667 4.778666-3.370667-0.768-1.408 6.528 1.408 8.533334-4.181333 8.746666-2.56 2.432-10.069333-0.768-0.853334 2.346667h-6.698666V768h-3.370667v-1.578667l-0.853333 1.578667v-9.6l-4.992-3.968 3.328-2.389333 2.56-4.736-5.077334-2.389334-1.706666 0.768-5.034667-1.578666 4.224-6.4-2.56-1.578667 0.853333-1.578667-8.405333-1.578666-1.706667 1.578666-1.706666-3.157333-4.181334-0.810667-1.706666 1.621334-3.328-0.810667v3.2h-10.88l0.341333-0.682667h-0.128l-0.213333 0.64-1.706667-0.768v16.725334l-1.706667-1.621334-10.026666-2.389333v2.389333l-2.517334 3.968-3.370666 1.578667-1.706667-0.768-1.664 3.968h-2.517333l-0.853334-1.621333-8.405333 0.810666V755.2l-2.517333-0.853333-4.181334-4.693334v-1.621333l-2.56-0.810667-0.853333-3.968-5.034667-0.768-2.56 2.389334-2.474666 0.768 0.853333-1.578667-4.266667 1.578667 3.413334 1.621333-3.413334 1.578667 0.853334 3.157333-1.664 0.810667 0.853333 2.389333h-2.56v3.968l-1.706667-0.810667-3.328 2.389334H338.346667l-3.328-11.093334 1.706666-4.010666-5.930666-11.093334-2.517334 0.768-1.706666-2.389333 1.706666-4.778667-0.853333-2.389333-5.034667-5.546667h-4.181333l-3.370667-3.968v-2.389333h3.413334l-1.706667-3.968H312.32l0.853333-2.389333 4.181334-0.810667H311.466667v-3.157333l-6.698667-3.968h-4.181333v-4.821334h-1.706667l0.853333 4.778667h-1.706666l0.853333-5.546667-1.706667-0.853333-0.853333 2.432 1.706667 1.578667-1.706667 3.968-9.216-2.389334-4.181333 0.810667-3.413334-1.578667-0.810666 2.346667-5.888 1.664-9.258667 1.578667-2.517333-0.768L256 709.12v3.968l-0.853333 7.936-3.328 1.621333-0.853334 3.157334 3.370667 1.578666-3.413333 6.4 1.706666 1.578667-6.698666 4.778667-3.370667-0.810667-4.181333 7.168-3.413334-3.2h-1.664l-5.888 3.2-4.181333-7.168-7.552 1.578667-3.413333-3.157334-1.664 1.578667v2.389333l-1.706667 0.810667-12.586667 1.578667-3.370666 1.536-6.698667-3.968h-5.077333l-1.706667-1.578667v3.968l-1.664 1.578667-6.741333-2.389334-7.552 0.810667-4.181334-1.578667-5.888-7.168-2.56-10.325333v-1.621333l1.706667-0.768-2.474667-7.978667-3.370666-3.157333-8.448-3.2h-5.034667l-1.706667 1.578666-1.664-0.810666 0.853334-7.125334-5.077334-0.810666 1.706667-3.968-0.853333-1.578667-0.853334 0.768-5.034666-1.578667-3.370667-4.778666h-5.845333l-4.181334 4.010666-2.56-2.389333h-6.698666l-2.56 2.389333-1.706667-2.389333-3.328-1.578667 0.853333-2.389333h-1.706666l-0.853334 2.389333L85.333333 689.28l2.56-4.010667H85.333333v-4.010666l3.370667-0.768 2.517333-2.389334v-1.578666l-5.034666-5.546667 2.517333-3.2 7.552-2.389333v-6.4l5.034667-2.346667-1.706667-0.768 5.930667-5.546667 2.517333-7.168h4.181333l1.706667-4.778666 0.853333 1.578666h1.664v0.810667l1.706667-3.2h10.922667l7.552-7.125333 5.888-1.621334v-6.357333l-1.706667-1.578667h1.706667v-1.578666h2.474666v-1.621334l0.853334 0.810667 2.56-3.968v-2.389333l7.509333-11.136 5.077333-2.389334h5.888l11.776-3.157333v-3.968h1.706667v-2.389333l0.853333 0.768 0.853334-2.389334 0.810666 0.810667v-2.389333h2.474667l1.706667-2.389334 5.034666 0.810667 5.034667-1.578667 0.853333-1.621333v1.621333l1.664-6.4h-1.706666v-1.578666l4.266666-1.536v-3.2l8.405334-1.578667 2.944 0.426667 3.2-0.384 0.597333-1.621334v-1.621333l3.328-5.546667-0.853333-2.389333 1.92-3.072 0.597333-3.285333-4.224 0.768-4.181333 5.546666-10.922667 4.821334-2.56-0.810667-5.034667 3.2-3.328-1.621333-2.56 0.810666-1.706666 1.578667v2.389333l-8.362667 1.578667-5.888 5.546667-4.224-0.768-10.069333 4.778666-0.853334-3.157333-1.706666 0.768v3.114667l-3.328 1.621333-5.888 7.936-4.181334 3.2-3.413333-1.621333 1.706667-7.936-1.706667-0.810667 2.56-0.768 0.853333-3.2v-3.968l-1.706666-1.578667 1.706666-3.968 8.405334-4.778666v-5.546667l1.706666-1.578667-0.853333-0.810666 1.706667-0.768 1.664-6.4v-10.325334l-2.56-8.746666-1.664 0.810666-2.56-2.389333v-3.968l-0.810667-0.810667-5.034667 2.389334-0.853333-0.768 1.706667-2.389334-2.56-3.2-0.810667-4.778666L135.808 512l2.56-2.389333v-2.346667l-2.56-1.578667-0.853333 0.768 0.853333-2.389333-2.56-0.810667v-1.578666h1.706667l0.853333-1.578667-0.853333-2.389333h1.706666l2.56-2.389334 0.810667-5.546666h1.706667l-0.853334-2.389334 1.578667-2.389333 0.853333 0.810667 1.706667-1.578667 3.328-5.546667 4.224-3.2 2.517333-7.168 6.698667-1.578666V465.066667l5.077333 0.810666 10.922667-4.778666v-3.157334l2.56-5.546666 3.328-3.2h2.218667l0.298666-0.426667v-1.962667l3.370667-6.357333-0.853333 0.810667-0.853334-2.389334 1.706667-2.389333h1.706667v-2.389333l6.698666-7.168 1.706667-5.546667-0.853333-3.2 3.370666-3.968-0.853333-0.768 1.706667-4.778667h4.181333l1.706667-2.389333-0.853334-3.157333 2.56-6.4-1.706666-0.768h1.706666l-1.706666-1.578667 5.888-3.2 2.517333 0.810667 0.853333-1.621334h5.034667l6.698667-2.389333 1.706666 2.389333 5.888 0.810667 5.034667-5.546667-2.56-2.432 0.853333-0.768-4.181333 0.768 1.706667-3.968-1.706667-0.768-0.853333-2.474666h1.706666l0.810667-1.578667 3.370667 3.2v-1.621333l1.706666-0.768-0.853333-2.389334 1.706667-0.810666-2.56-2.304 1.706666 0.768-0.853333-1.578667 1.706667-4.778667 0.810666 0.810667 3.370667-1.621333-1.706667-0.768h1.706667l0.853333 2.389333h2.517334v4.778667l6.698666 7.125333 1.706667-3.968 6.698667-4.778667 5.077333-7.125333 8.405333-7.168v-3.2h2.517334l2.517333-7.125333 5.034667-1.621334v-3.157333l1.706666 1.578667 1.706667-2.389334-0.853333-3.157333 4.181333-3.968 0.853333-2.389333 5.034667 1.578666 8.405333-1.578666 10.24 1.365333 6.570667-1.365333 21.034667 0.768 8.405333-3.157334 6.741333 3.157334 3.328-1.578667 8.832-15.488 3.797334-10.752 2.56-2.389333h13.397333l2.56-2.389334v-2.389333l5.034667-3.968-0.853334-2.389333 3.370667-0.768-0.853333-2.389334 1.706666-5.546666 10.069334-9.557334-0.853334 1.578667 13.482667 11.136 3.370667-1.578667 6.698666 0.768 7.552 3.2 4.224 4.778667h3.370667l2.517333 0.768 6.698667 2.389333h7.594667l3.328 2.389334 2.517333-3.2 5.034667 1.621333 3.413333 7.125333 1.664 0.810667 5.034667-3.2 0.853333-6.357333 2.517333-1.578667 19.328-2.389333 10.922667 2.389333 6.741333 6.357333 3.285334 12.714667 11.776 9.557333 2.56 11.946667 3.328 1.578667 5.034666-3.2 3.413334-4.778667 2.474666-0.768 2.56 1.578667 1.664 3.2 0.853334 5.546666-5.077334 18.304-3.370666 1.578667-9.216-0.810667-13.482667 1.621334-4.181333 3.157333-1.706667 3.2-3.285333 8.746667v3.968l4.224 15.104 2.517333-0.810667 0.853333 1.578667-3.413333 1.621333 0.853333 2.389333 2.56 3.968 3.328 0.768 0.170667 0.554667 0.682667 0.256 1.706666 7.168 2.474667 0.768v-2.389333h4.224l0.853333-3.157334 0.554667-0.170666 0.256-0.64 0.981333 0.213333 0.682667-0.213333 1.706667 0.810666h-3.370667l-1.706667 5.546667 0.853334 0.810667 7.594666-6.4 0.853334 0.853333-2.56 2.346667h1.706666v1.621333l-1.706666 5.546667 1.706666 0.810666v-3.968h3.370667l2.517333 2.346667 2.517334-0.768 1.706666 1.578667v7.168l3.328 3.968 2.56-1.578667 15.104-0.853333 1.706667 0.853333h7.552l5.888-2.389333 5.888-1.621334v1.621334h4.181333l1.706667 1.578666 10.069333-11.946666 3.370667-0.768 2.517333-2.389334-3.370666-0.810666 4.181333-0.768v-1.578667l-1.664-0.853333 0.853333-3.157334-5.077333-4.736v-4.778666l9.258667-0.810667 2.56-4.778667 12.586666-3.157333 2.56-2.389333 5.845334-2.389334 10.112-7.978666 0.853333-1.578667-4.266667-3.968 0.853334-3.968 5.930666-0.810667 0.853334-3.157333-5.12-1.621333-1.664-3.2 16.810666-1.578667 8.405334-7.168 7.594666 0.810667 6.698667-1.621334 4.224-3.968h4.181333l9.258667-5.546666 10.069333 1.578666 5.888-1.578666 0.853334 1.578666h4.181333l0.853333 4.778667 3.370667 3.2h2.517333l4.181334 5.546667 10.965333-0.768 2.517333 3.157333-1.706666 2.389333 1.706666 4.778667-1.706666 3.157333 7.552 4.778667h9.258666l5.888-1.578667 0.853334-0.810666-1.706667-4.778667 4.224 1.621333 5.888 3.968h-5.930667l2.56 6.357334 5.034667 3.157333v3.2l5.888 4.778667 6.698667 2.389333v-2.389333l6.741333-3.968h1.706667l1.706666 2.389333 8.362667 0.810667 19.328-0.810667 5.077333-2.389333 3.328-1.578667V372.053333h1.706667v-3.157333l2.517333 0.768 1.706667-2.389333 2.517333 0.810666-1.706666-3.2 0.853333-0.768 1.706667 2.389334h4.181333v-1.621334l2.517333 0.810667-0.853333 0.810667 3.413333 2.346666-2.56 2.389334h-1.706666v2.389333l2.56 0.810667-0.853334 0.768 1.706667 5.546666 2.517333 1.621334 0.853334-3.157334h1.664l0.853333-1.621333 1.664 0.810667v-1.578667l5.034667 1.578667 0.853333 4.778666 2.517333 0.768h11.776l7.552-2.389333 0.853334 2.389333 5.888 1.621334 10.922666-3.2 2.56 1.621333-0.853333-1.621333h1.664l2.56 1.621333 0.810667 2.389333z m-124.416 73.130667l-4.224 0.768-4.565334 5.333333 7.936-4.522666 0.853334-1.578667z m-8.405334 11.946667h1.706667l-0.853333-0.810667-0.853334 0.810667zM158.464 577.152l-0.853333 0.810667-0.853334 1.536 1.706667-0.768v-1.578667z" fill="#C9D6EF" p-id="3439"></path><path d="M741.546667 234.752a21.333333 21.333333 0 0 1 16.768 5.76l1.706666 1.578667a21.333333 21.333333 0 0 1 5.76 21.546666v0.341334a21.333333 21.333333 0 0 1-13.141333 19.669333 21.248 21.248 0 0 1 4.053333 2.005333l2.56 1.578667a21.333333 21.333333 0 0 1 4.522667 32.256c0.554667 0.853333 1.066667 1.706667 1.493333 2.645333a19.456 19.456 0 0 1 1.109334 0.810667h0.042666a21.333333 21.333333 0 0 1 18.261334 8.021333l2.56 3.157334 0.085333 0.170666a21.333333 21.333333 0 0 1 10.922667 1.109334l4.181333 1.578666c1.536 0.597333 2.986667 1.365333 4.352 2.261334l5.888 3.968 0.938667 0.682666a21.333333 21.333333 0 0 1 14.592 9.770667 21.333333 21.333333 0 0 1 6.357333 2.56l11.562667-0.426667a21.376 21.376 0 0 1 6.314666-5.461333 19.84 19.84 0 0 1 0.938667-0.938667l0.853333-0.768a21.333333 21.333333 0 0 1 20.394667-5.077333 21.333333 21.333333 0 0 1 6.528 0.981333l2.517333 0.810667a21.333333 21.333333 0 0 1 11.52 8.746667 22.058667 22.058667 0 0 1 1.536 1.834666c1.365333 0.853333 2.56 1.92 3.626667 3.029334 1.792 0.853333 3.413333 1.877333 4.906667 3.114666l2.56-0.853333a21.290667 21.290667 0 0 1 16 1.28l2.133333-0.597333a21.333333 21.333333 0 0 1 7.68-0.853334h1.664a21.333333 21.333333 0 0 1 11.392 3.328l2.56 1.578667a21.333333 21.333333 0 0 1 8.661333 10.88l0.853334 2.389333a21.333333 21.333333 0 0 1-5.461334 22.613334l-3.328 3.2-0.042666 0.042666a21.290667 21.290667 0 0 1-1.621334 15.872l-0.853333 1.621334a21.504 21.504 0 0 1-2.602667 3.84 21.333333 21.333333 0 0 1-1.706666 16.213333 21.461333 21.461333 0 0 1-1.706667 7.04 21.333333 21.333333 0 0 1-6.826667 14.421333l-3.370666 3.157334a21.205333 21.205333 0 0 1-6.229334 4.010666 21.077333 21.077333 0 0 1-4.565333 1.706667 21.162667 21.162667 0 0 1-4.010667 1.578667l-2.773333 0.768-0.682667 0.384-4.181333 2.389333a21.333333 21.333333 0 0 1-11.349333 2.773333 21.333333 21.333333 0 0 1-5.76-0.554666l-1.322667-0.341334a21.418667 21.418667 0 0 1-8.32-0.810666 21.333333 21.333333 0 0 1-15.786667-4.693334 21.290667 21.290667 0 0 1-13.568-4.266666 21.333333 21.333333 0 0 1-8.277333 6.997333 21.333333 21.333333 0 0 1-27.306667 16.213333 21.333333 21.333333 0 0 1-7.765333-0.426666l-0.341333-0.042667a21.333333 21.333333 0 0 1-13.226667 4.608h-2.56l-1.749333-0.042667-0.170667 0.085334a21.333333 21.333333 0 0 1-8.533333 3.626666 21.461333 21.461333 0 0 1-5.973334 1.706667l-2.517333 1.493333-1.749333 1.706667a21.333333 21.333333 0 0 1-16.682667 26.88 21.333333 21.333333 0 0 1-5.162667 3.242667 21.333333 21.333333 0 0 1-7.338666 16.469333 21.248 21.248 0 0 1-6.101334 10.581333l-0.853333 0.768a21.333333 21.333333 0 0 1-6.4 4.181334 21.333333 21.333333 0 0 1-8.405333 2.389333 21.290667 21.290667 0 0 1-12.416 4.010667h-1.706667l-1.450667-0.042667a22.186667 22.186667 0 0 1-1.92 0.085333 21.376 21.376 0 0 1-7.253333 3.84 21.333333 21.333333 0 0 1-11.52 9.941334l0.256 0.682666a21.333333 21.333333 0 0 1-5.461333 22.613334l-1.706667 1.578666a21.333333 21.333333 0 0 1-20.053333 5.12 20.949333 20.949333 0 0 1-2.261334 1.450667 21.333333 21.333333 0 0 1-10.368 10.112 21.248 21.248 0 0 1-10.368 5.418667 21.461333 21.461333 0 0 1-2.816 1.578666l-1.706666 0.810667a21.333333 21.333333 0 0 1-6.826667 1.92l-0.512 1.408a21.546667 21.546667 0 0 1-1.450667 3.413333 21.333333 21.333333 0 0 1-3.84 10.88l-1.706666 2.389334a22.101333 22.101333 0 0 1-0.768 1.024 32.426667 32.426667 0 0 1-0.469334 0.938666 21.333333 21.333333 0 0 1-10.965333 12.8 21.290667 21.290667 0 0 1 0.128 2.389334v2.346666a21.333333 21.333333 0 0 1-10.837333 18.56 21.333333 21.333333 0 0 1-15.573334 6.784h-2.517333a21.248 21.248 0 0 1-5.802667-0.853333 21.333333 21.333333 0 0 1-7.808-1.408 21.333333 21.333333 0 0 1-13.312 4.608h-7.082666a21.461333 21.461333 0 0 1-2.133334 4.010667l-3.498666 5.333333a21.248 21.248 0 0 1-1.92 5.376 21.333333 21.333333 0 0 1-7.466667 22.016l-5.034667 3.968a21.333333 21.333333 0 0 1-10.624 4.437333 21.333333 21.333333 0 0 1-13.226666 1.237334 21.333333 21.333333 0 0 1-2.133334 9.898666l-4.181333 8.746667a21.333333 21.333333 0 0 1-4.352 6.058667l-2.517333 2.432a21.333333 21.333333 0 0 1-16.512 5.973333l-0.853334-0.085333a20.906667 20.906667 0 0 1-2.773333 0.981333 21.248 21.248 0 0 1-12.373333 3.925333h-3.712a21.333333 21.333333 0 0 1-21.802667-21.077333 21.333333 21.333333 0 0 1-3.328-5.418667 21.333333 21.333333 0 0 1-21.248 8.618667 19.925333 19.925333 0 0 1-1.28 0.682667l-0.426667 0.170666a21.333333 21.333333 0 0 1-15.445333 6.656h-2.517333a21.418667 21.418667 0 0 1-6.4-0.981333l-0.853334 0.085333a21.333333 21.333333 0 0 1-13.525333-3.285333 21.205333 21.205333 0 0 1-10.709333 5.418667 21.333333 21.333333 0 0 1-8.917334 1.92H338.346667a21.333333 21.333333 0 0 1-20.394667-15.146667l-3.413333-11.093333a21.333333 21.333333 0 0 1-0.853334-4.949334 21.248 21.248 0 0 1-2.816-3.242666l-1.706666-2.389334a21.290667 21.290667 0 0 1-3.413334-7.68 21.205333 21.205333 0 0 1-3.882666-3.669333l-3.370667-3.968a21.333333 21.333333 0 0 1-4.096-7.594667 21.461333 21.461333 0 0 1-3.413333-0.597333l-4.608-1.194667a21.077333 21.077333 0 0 1-1.621334 0.213334l-0.341333 0.085333-5.888 1.664a20.821333 20.821333 0 0 1-2.090667 0.426667l-0.042666 0.341333a21.333333 21.333333 0 0 1-0.725334 3.669333 21.333333 21.333333 0 0 1-1.706666 8.746667 21.333333 21.333333 0 0 1-8.96 17.066667l-6.741334 4.736a21.162667 21.162667 0 0 1-2.773333 1.706666 21.333333 21.333333 0 0 1-22.613333 7.893334 21.376 21.376 0 0 1-18.688-3.882667 22.485333 22.485333 0 0 1-2.56 0.426667l-9.386667 1.237333-0.426667 0.170667a21.333333 21.333333 0 0 1-16.426666 0.554666 21.333333 21.333333 0 0 1-14.677334 0.170667l-2.218666-0.810667-2.773334 0.298667a21.333333 21.333333 0 0 1-9.813333-1.28l-4.181333-1.578667a21.333333 21.333333 0 0 1-8.874667-6.4l-5.888-7.125333a21.333333 21.333333 0 0 1-4.266667-8.533333l-2.261333-9.216a21.333333 21.333333 0 0 1-7.936-2.005334l-1.706667-0.768a21.333333 21.333333 0 0 1-11.349333-13.184 21.461333 21.461333 0 0 1-8.106667-0.682666 21.333333 21.333333 0 0 1-19.712-4.266667l-1.109333-0.256a21.333333 21.333333 0 0 1-16.426667-22.741333 21.546667 21.546667 0 0 1-0.085333-2.005334v-4.010666a21.333333 21.333333 0 0 1 1.109333-6.826667 21.333333 21.333333 0 0 1 4.352-16.768l2.56-3.2a21.376 21.376 0 0 1 4.906667-4.48 21.333333 21.333333 0 0 1 6.485333-7.978667 21.589333 21.589333 0 0 1 1.536-1.664l2.133334-2.005333 0.853333-2.304a21.333333 21.333333 0 0 1 9.813333-11.562667 21.333333 21.333333 0 0 1 14.293334-7.338666 21.248 21.248 0 0 1 6.101333-0.853334h1.834667a21.333333 21.333333 0 0 1 5.333333-10.069333 21.333333 21.333333 0 0 1-6.229333-19.925333 21.333333 21.333333 0 0 1 1.237333-12.757334 21.333333 21.333333 0 0 1 1.664-9.514666l1.706667-3.968a21.333333 21.333333 0 0 1 8.106666-9.6 21.248 21.248 0 0 1 2.432-5.632 21.333333 21.333333 0 0 1-5.546666-3.84l-0.853334-0.768a21.290667 21.290667 0 0 1-6.485333-12.544 21.333333 21.333333 0 0 1-6.826667-14.293334 21.333333 21.333333 0 0 1-2.56-10.154666v-1.578667c0-3.712 0.938667-7.253333 2.645334-10.24a21.333333 21.333333 0 0 1 5.333333-8.874667 22.229333 22.229333 0 0 1 0.426667-1.152 21.333333 21.333333 0 0 1 2.901333-6.058666l1.578667-2.389334a21.333333 21.333333 0 0 1 5.248-5.333333 21.632 21.632 0 0 1 4.48-5.248l0.426666-1.152a21.333333 21.333333 0 0 1 14.464-13.482667 21.376 21.376 0 0 1 11.349334-3.925333l0.085333-0.213333a21.290667 21.290667 0 0 1 4.778667-6.698667l1.066666-1.024a21.333333 21.333333 0 0 1 3.712-9.301333l1.706667-2.389334a21.248 21.248 0 0 1 0.853333-1.152 21.333333 21.333333 0 0 1 2.688-3.541333l1.792-1.877333a21.333333 21.333333 0 0 1 3.84-11.648l1.578667-4.394667a21.333333 21.333333 0 0 1 4.693333-7.594667 21.333333 21.333333 0 0 1 11.178667-18.346666l5.888-3.2a21.333333 21.333333 0 0 1 6.869333-2.304 21.333333 21.333333 0 0 1 4.053334-0.896 21.333333 21.333333 0 0 1 7.893333-10.624 22.784 22.784 0 0 1 0.170667-0.256l0.426666-1.28a21.333333 21.333333 0 0 1 10.026667-11.690667 21.290667 21.290667 0 0 1 12.629333-4.138667h1.706667a21.333333 21.333333 0 0 1 10.538667 2.773334l1.621333-1.365334a21.333333 21.333333 0 0 1 5.248-7.637333 21.333333 21.333333 0 0 1 7.68-9.216 21.333333 21.333333 0 0 1 0.341333-0.469333 21.333333 21.333333 0 0 1 4.48-6.101334l0.810667-0.725333a21.333333 21.333333 0 0 1 25.258667-10.496l3.114666-0.597333a21.333333 21.333333 0 0 1 6.826667-0.170667l6.613333 0.896 2.986667-0.64a21.333333 21.333333 0 0 1 5.162667-0.426667l16.725333 0.64 4.352-1.664a21.333333 21.333333 0 0 1 6.101333-1.322666l0.853334-1.536 3.2-8.96a21.333333 21.333333 0 0 1 5.418666-8.362667l2.56-2.389333a21.333333 21.333333 0 0 1 14.634667-5.845334h1.450667a21.333333 21.333333 0 0 1 2.005333-3.029333l0.512-1.706667a21.333333 21.333333 0 0 1 5.76-9.301333l10.112-9.514667a21.333333 21.333333 0 0 1 33.493333 5.461334l6.357334 0.768a21.333333 21.333333 0 0 1 5.76 1.536l7.552 3.157333a21.333333 21.333333 0 0 1 6.613333 4.394667l1.578667 0.469333a24.064 24.064 0 0 1 0.768 0.256l3.242666 1.152h3.882667a21.461333 21.461333 0 0 1 12.330667 0.213333l1.194666 0.384a21.333333 21.333333 0 0 1 8.277334-2.816l19.328-2.389333a21.333333 21.333333 0 0 1 7.125333 0.341333l10.965333 2.346667a21.333333 21.333333 0 0 1 10.112 5.376l6.698667 6.357333a21.333333 21.333333 0 0 1 5.973333 10.112l1.578667 5.973334 6.314667 5.12a11.733333 11.733333 0 0 1 0.298666 0.213333 21.333333 21.333333 0 0 1 14.506667 3.072l2.474667 1.578667a21.333333 21.333333 0 0 1 7.466666 8.064l1.706667 3.157333c1.109333 2.133333 1.877333 4.437333 2.218667 6.826667l0.853333 5.546666c0.426667 2.986667 0.256 5.973333-0.512 8.874667l-5.077333 18.304a21.333333 21.333333 0 0 1-11.434667 13.568l-3.328 1.621333a21.333333 21.333333 0 0 1-10.965333 1.962667l-6.826667-0.597333c0.853333 1.109333 1.706667 2.304 2.346667 3.584l0.810666 1.536a21.290667 21.290667 0 0 1 2.944 0.597333c4.992 0.170667 9.984 2.133333 13.866667 5.802667l0.853333 0.810666c1.621333 1.536 2.986667 3.328 4.053334 5.290667 1.28 0.725333 2.432 1.664 3.498666 2.688l1.706667 1.578667 0.341333 0.341333a21.333333 21.333333 0 0 1 15.104 1.834667 21.034667 21.034667 0 0 1 0.469334-0.128l5.888-1.578667a21.248 21.248 0 0 1 1.28-0.298667 21.162667 21.162667 0 0 1-0.256-2.986666v-4.736a21.333333 21.333333 0 0 1 18.56-21.162667 21.333333 21.333333 0 0 1 9.344-5.12l7.466666-1.877333a21.418667 21.418667 0 0 1 4.48-2.602667 39.552 39.552 0 0 1 0.170667-0.682667l0.810667-3.925333a21.333333 21.333333 0 0 1 18.858666-25.685333l7.168-0.64a21.333333 21.333333 0 0 1 15.573334-11.776v-3.626667c0-4.736 1.536-9.173333 4.266666-12.8a21.162667 21.162667 0 0 1 0.554667-3.498667 21.333333 21.333333 0 0 1 14.250667-25.514666 21.461333 21.461333 0 0 1 2.346666-2.773334 21.333333 21.333333 0 0 1 2.858667-7.338666l2.517333-3.968a22.186667 22.186667 0 0 1 0.597334-0.896 21.333333 21.333333 0 0 1 10.453333-11.605334 21.333333 21.333333 0 0 1 15.018667-8.533333zM666.24 395.946667a21.333333 21.333333 0 0 1-9.002667 4.778666l-2.432 0.64v2.56a21.248 21.248 0 0 1-2.901333 10.752 21.290667 21.290667 0 0 1-4.608 6.314667l-2.517333 2.389333a21.333333 21.333333 0 0 1-5.845334 3.925334l-5.973333 7.082666a21.333333 21.333333 0 0 1-24.106667 6.058667l-1.792 0.725333a21.333333 21.333333 0 0 1-8.021333 1.578667h-7.552a21.418667 21.418667 0 0 1-5.034667-0.597333l-5.546666 0.256a21.333333 21.333333 0 0 1-25.088-5.632l-3.029334-3.626667a21.717333 21.717333 0 0 1-3.2-1.194667l-1.706666-0.768a21.418667 21.418667 0 0 1-4.565334-2.944 21.76 21.76 0 0 1-3.626666-0.810666l-2.56-0.768a21.333333 21.333333 0 0 1-13.653334-13.184 21.418667 21.418667 0 0 1-3.84-4.48l-2.517333-3.968a21.589333 21.589333 0 0 1-2.133333-4.394667l-0.853334-2.346667a21.333333 21.333333 0 0 1-1.152-6.570666l-3.413333-12.288a21.376 21.376 0 0 1-0.810667-5.717334v-3.968c0-2.56 0.469333-5.12 1.365334-7.552l3.328-8.746666a21.461333 21.461333 0 0 1 1.109333-2.474667l1.706667-3.157333a21.333333 21.333333 0 0 1 5.973333-6.997334l4.181333-3.2a21.333333 21.333333 0 0 1 3.797334-2.304l-0.042667-0.128-0.938667-4.522666-5.888-4.778667a21.333333 21.333333 0 0 1-7.253333-11.221333l-1.322667-5.205334-3.84 0.469334a21.333333 21.333333 0 0 1-6.485333 6.272l-5.034667 3.2a21.333333 21.333333 0 0 1-20.48 1.28l-1.664-0.853334a21.290667 21.290667 0 0 1-5.632-3.84 21.162667 21.162667 0 0 1-5.973333-2.048h-1.152a21.333333 21.333333 0 0 1-7.125333-1.194666l-5.504-1.962667a21.333333 21.333333 0 0 1-16-7.253333l-0.512-0.597334a21.333333 21.333333 0 0 1-13.568-0.981333 21.333333 21.333333 0 0 1-3.925334 4.48 21.333333 21.333333 0 0 1-4.266666 5.674667l-2.56 2.389333a21.333333 21.333333 0 0 1-14.634667 5.802667H396.373333a21.333333 21.333333 0 0 1-1.152 2.346666l-8.789333 15.488a21.333333 21.333333 0 0 1-9.386667 8.746667l-3.413333 1.578667a21.333333 21.333333 0 0 1-16.64 0.682666 21.461333 21.461333 0 0 1-8.405333 1.365334l-18.346667-0.682667-4.053333 0.853333a21.333333 21.333333 0 0 1-7.253334 0.256l-6.826666-0.938666-0.725334 0.128-0.042666 0.128-1.706667 2.389333a21.333333 21.333333 0 0 1-3.669333 3.968 21.333333 21.333333 0 0 1-3.712 3.114667 21.290667 21.290667 0 0 1-3.882667 5.674666 21.333333 21.333333 0 0 1-4.096 4.693334l-6.4 5.418666-3.456 4.949334a21.333333 21.333333 0 0 1-5.12 5.077333l-1.877333 1.365333a21.333333 21.333333 0 0 1-17.536 11.264 21.589333 21.589333 0 0 1-1.493334 1.792l-5.034666 5.546667a21.333333 21.333333 0 0 1-18.645334 6.826667l-5.12-0.682667a21.333333 21.333333 0 0 1-3.2 6.954667l-1.706666 2.389333a21.333333 21.333333 0 0 1-4.010667 4.309333 21.290667 21.290667 0 0 1-0.554667 2.304l-1.706666 5.546667a21.333333 21.333333 0 0 1-4.864 8.448l-2.304 2.432a21.333333 21.333333 0 0 1-1.28 2.816 21.376 21.376 0 0 1-1.493334 3.626667l-1.28 2.389333a21.333333 21.333333 0 0 1-3.456 8.192l-0.256 0.426667a21.333333 21.333333 0 0 1-4.992 5.034666 21.333333 21.333333 0 0 1-12.117333 14.165334l-10.922667 4.778666a21.546667 21.546667 0 0 1-4.864 1.450667 21.333333 21.333333 0 0 1-5.12 5.546667l-0.896 0.725333-1.28 2.048a21.162667 21.162667 0 0 1-1.749333 2.517333 21.333333 21.333333 0 0 1-1.834667 3.498667 21.504 21.504 0 0 1-0.469333 1.493333l0.213333 1.28 0.725334 1.322667a21.589333 21.589333 0 0 1 2.901333 2.304l0.853333 0.810667a21.333333 21.333333 0 0 1 4.224 5.546666 21.333333 21.333333 0 0 1 5.802667 9.6l2.56 8.746667a21.333333 21.333333 0 0 1 0.810667 5.888v8.021333a21.333333 21.333333 0 0 1 5.888-2.901333l2.517333-0.810667a21.162667 21.162667 0 0 1 6.698667-0.981333 21.248 21.248 0 0 1 7.936-1.578667l0.768-1.066666a21.333333 21.333333 0 0 1 13.098666-8.106667l4.181334-0.810667a21.333333 21.333333 0 0 1 24.96 24.661334l-0.554667 3.328a21.333333 21.333333 0 0 1-0.810667 3.072 21.333333 21.333333 0 0 1-2.986666 9.685333l-1.066667 1.706667a20.906667 20.906667 0 0 1-0.426667 1.536l-0.64 1.664a21.333333 21.333333 0 0 1-17.92 14.08l-0.853333 0.128a21.333333 21.333333 0 0 1-16.896 13.994666l-2.688 0.853334a19.370667 19.370667 0 0 1-0.682667 0.213333 21.333333 21.333333 0 0 1-13.653333 11.178667l-11.776 3.157333a21.333333 21.333333 0 0 1-3.370667 0.597333 21.333333 21.333333 0 0 1-2.645333 6.144l-2.517333 3.968-0.042667 0.085334a21.333333 21.333333 0 0 1-15.744 19.413333l-0.682667 0.170667-3.669333 3.498666a21.333333 21.333333 0 0 1-14.634667 5.802667h-1.408a21.461333 21.461333 0 0 1-2.858666 1.450667 27.861333 27.861333 0 0 1-0.810667 0.597333 21.461333 21.461333 0 0 1-3.072 4.096 21.333333 21.333333 0 0 1-2.048 3.712 21.333333 21.333333 0 0 1 13.653333 6.4 21.333333 21.333333 0 0 1 12.885334 10.496l0.853333 1.621333v0.085334a20.821333 20.821333 0 0 1 1.450667 1.706666l6.613333 2.517334a21.333333 21.333333 0 0 1 7.082667 4.437333l3.328 3.157333a21.333333 21.333333 0 0 1 5.717333 9.130667l2.474667 7.936a21.333333 21.333333 0 0 1 0.768 3.370667 21.333333 21.333333 0 0 1 14.037333 0.853333 21.333333 21.333333 0 0 1 8.149333 2.218667l1.536-0.170667 0.213334-0.213333a21.333333 21.333333 0 0 1 23.082666-4.096c3.413333-0.426667 6.826667 0 9.898667 1.152l0.554667-2.133334a21.333333 21.333333 0 0 1 3.498666-7.253333v-0.853333a21.333333 21.333333 0 0 1 4.608-13.226667l5.077334-6.4a21.333333 21.333333 0 0 1 20.266666-7.722667l1.322667-0.256a21.290667 21.290667 0 0 1 17.408-4.522666 21.162667 21.162667 0 0 1 22.912-3.114667l1.706667 0.810667a21.418667 21.418667 0 0 1 10.24 8.064l4.138666 2.432c0.725333 0.426667 1.408 0.896 2.090667 1.408a21.333333 21.333333 0 0 1 14.250667 19.882666l4.565333 4.992a21.333333 21.333333 0 0 1 4.309333 7.253334l0.853334 2.432a21.333333 21.333333 0 0 1 0.554666 1.877333 21.333333 21.333333 0 0 1 11.989334-1.621333l5.12 0.810666a21.333333 21.333333 0 0 1 13.738666 8.234667 21.333333 21.333333 0 0 1 5.632-3.584 21.333333 21.333333 0 0 1 22.442667-14.293333h0.256a21.333333 21.333333 0 0 1 9.258667-2.517334 21.333333 21.333333 0 0 1 9.813333-0.426666l4.181333 0.768a21.333333 21.333333 0 0 1 5.930667 2.090666l5.888 1.109334a21.333333 21.333333 0 0 1 15.018667 11.221333 22.357333 22.357333 0 0 1 0.853333-1.749333l0.810667-1.621334a21.333333 21.333333 0 0 1 10.112-9.514666 21.333333 21.333333 0 0 1 17.066666-6.570667 21.461333 21.461333 0 0 1 3.2-0.682667 21.632 21.632 0 0 1 1.664-2.218666 21.333333 21.333333 0 0 1 6.101334-8.362667l2.261333-3.328v-3.114667a21.333333 21.333333 0 0 1 9.941333-18.048l5.077334-3.157333a21.333333 21.333333 0 0 1 14.677333-2.986667l1.194667-0.341333a21.376 21.376 0 0 1 5.546666-0.768h0.853334a21.333333 21.333333 0 0 1 9.429333-4.992l6.272-1.450667a21.333333 21.333333 0 0 1 8.106667-2.261333v-0.128a21.333333 21.333333 0 0 1 6.186666-10.752l8.405334-7.978667a21.418667 21.418667 0 0 1 3.114666-2.432 20.650667 20.650667 0 0 1 0.298667-0.725333l1.706667-3.968a21.333333 21.333333 0 0 1 3.968-6.144l1.92-5.802667a21.333333 21.333333 0 0 1 9.386666-16.512l0.512-0.341333a20.906667 20.906667 0 0 1 2.773334-1.578667 21.333333 21.333333 0 0 1 14.506666-5.674666h0.554667a18.986667 18.986667 0 0 1 1.109333-0.64l0.042667-0.213334 0.853333-2.389333a21.333333 21.333333 0 0 1 5.461334-8.405333l0.853333-0.853334a21.376 21.376 0 0 1 8.106667-4.778666l2.56-4.266667a21.12 21.12 0 0 1 3.498666-4.266667l1.621334-1.621333a19.669333 19.669333 0 0 1 1.024-0.938667 22.954667 22.954667 0 0 1-0.853334-1.536l-1.706666-3.157333a21.333333 21.333333 0 0 1 4.181333-25.472 21.248 21.248 0 0 1 4.224-5.589333l4.181333-3.968a21.418667 21.418667 0 0 1 8.277334-4.864l2.517333-0.810667a21.248 21.248 0 0 1 7.466667-0.938667l2.389333-1.152a21.333333 21.333333 0 0 1 24.96 4.949334 21.248 21.248 0 0 1 3.456-8.874667 21.290667 21.290667 0 0 1 4.053333-9.514667l4.224-5.546666a20.565333 20.565333 0 0 1 1.664-1.962667 21.290667 21.290667 0 0 1 6.698667-6.528 21.333333 21.333333 0 0 1 8.96-18.346667l3.370667-2.389333a21.333333 21.333333 0 0 1 18.773333-2.944l5.034667 1.621333a21.248 21.248 0 0 1 2.048 0.768l5.76-3.498666a21.248 21.248 0 0 1 7.338666-2.730667 21.333333 21.333333 0 0 1 5.589334-2.133333l0.853333-0.597334a21.333333 21.333333 0 0 1 6.741333-3.2l1.962667-0.512a21.333333 21.333333 0 0 1 8.789333-4.437333l3.072-3.541333a21.333333 21.333333 0 0 1 12.202667-6.997334l4.181333-0.810666a21.333333 21.333333 0 0 1 9.813334 0.469333 21.333333 21.333333 0 0 1 8.448-5.802667l17.066666-6.485333a21.333333 21.333333 0 0 1 13.994667-5.248h3.370667c3.242667 0 6.314667 0.725333 9.088 2.048a21.333333 21.333333 0 0 1 18.005333 4.48 21.333333 21.333333 0 0 1 1.322667-4.096 21.12 21.12 0 0 1 0.426666-2.645333l1.706667-7.168a21.248 21.248 0 0 1 4.394667-8.789334h-2.986667a21.333333 21.333333 0 0 1-6.4-0.981333l-2.517333-0.768a20.522667 20.522667 0 0 1-0.554667-0.170667 21.333333 21.333333 0 0 1-15.36-2.944l-2.56-1.578666a21.333333 21.333333 0 0 1-4.096-3.413334l-1.450667 0.682667a21.333333 21.333333 0 0 1-8.234666 2.048l-19.328 0.768c-0.981333 0.042667-1.92 0-2.901334-0.042667l-4.522666-0.426666a21.333333 21.333333 0 0 1-19.114667 2.432l-6.698667-2.389334a21.333333 21.333333 0 0 1-6.314666-3.541333l-5.888-4.778667a21.333333 21.333333 0 0 1-5.290667-6.357333h-7.338667a21.333333 21.333333 0 0 1-11.349333-3.285333l-7.594667-4.778667a21.248 21.248 0 0 1-8.789333-11.136 21.333333 21.333333 0 0 1-8.277333-6.314667 21.376 21.376 0 0 1-4.693334-3.370666l-2.304-2.218667a21.461333 21.461333 0 0 1-1.493333-0.170667l-2.389333-0.384-2.602667 1.578667a21.333333 21.333333 0 0 1-6.314667 2.56 21.333333 21.333333 0 0 1-8.149333 3.882667l-6.741333 1.578666a21.333333 21.333333 0 0 1-5.546667 0.597334l-1.536 1.28a21.333333 21.333333 0 0 1-5.973333 3.584 21.248 21.248 0 0 1-2.389334 8.405333l-0.853333 1.578667a21.290667 21.290667 0 0 1-5.674667 6.826666l-10.069333 7.936a21.333333 21.333333 0 0 1-5.205333 3.029334l-2.133334 0.853333z" fill="#2B60CB" p-id="3440"></path></svg>