<?xml version="1.0" standalone="no"?><!DOCTYPE svg PUBLIC "-//W3C//DTD SVG 1.1//EN" "http://www.w3.org/Graphics/SVG/1.1/DTD/svg11.dtd"><svg t="1760689259561" class="icon" viewBox="0 0 1024 1024" version="1.1" xmlns="http://www.w3.org/2000/svg" p-id="4836" xmlns:xlink="http://www.w3.org/1999/xlink" width="200" height="200"><path d="M501.4 493.6c-0.3-1.2-0.7-2.3-1-3.5 2.7 0.5 4.1-0.2 3.9-2.2-6.2-6.3-9.3-5.2-12.3-15.7-1.6-5.7-2.8-11.2-4.8-16.7-0.8-2.2 2.8-5.4 0.5-8.2-1.4-1.7-6.8 1.4-9.5-2.6-3.3-4.8 3.5-1.7 3.5-3.9-0.1-13.2-2.2-28.4-10.4-39-1.3 1.4-4 3.5-5.8 4.5-3.1 1.6 0.3 6.1-1.1 6.7-7.9 3.3-2.7-16.9-4.9-17.2-4.7-0.5-4.2 0.9-6.7-5.7-0.2-0.5 5.1-18.1-2.8-7.1 0.1-7.1 5.2-5.4 9.6-7.7 2.6-1.1 5.1-2.4 7.6-3.8 1.5-3.2 3.8-3.8 6.9-2 4.2-2.6 9.9-14.8 12.1-13.6 0 0.3 5-9.1 5.6-9.6 5.7-5 8.6-6 11.4-15 11.5 4.5 20.1 6.2 27.9 11.7 2.3-6.9 3.3-4.8 4.2-11.6 0.6-4.4-3.1-7.3-0.5-11.2 4.3-6.6 14.2-0.8 10.9-11 4.3 4.3 8.7-5.3 12.1-7.4 5.9-3.7 9.3-3.7 15.3-3.4 8 0.3 13.1-1.9 15.6 7.8 0.9 3.3-0.6 7.2-1 10.6-0.9 7 4.9 4.8-2.4 11.2-0.9-1.3-1.2-2.7-0.9-4.3-8.6 4-12.1 15.8-22.1 17.4-0.6 4.3-1.9 3.5-0.9 9.4 1.1 5.8 6.4 19.6 13.8 21.3-0.4 0.9-1 1.4-1.9 1.5 2.2 0.7 4.3 1.4 6.5 2.2-2 0.4-0.1 25.8 1.9 29.6-4.2-1.3-6-9.9-10.9-8.5-5 1.4-2.4 10.1-2.2 14 0.2 3.7 1.8 9.3 0.8 12.8-1.4 4.8-7.4 6.7-7.4 12.5-14.5-9.9-41 3.9-39.7 20.9 1.6 21 14.6 34.1 22.1 52.6 3.8 9.2 9.7 36.5-6.7 24.8-4.7-3.4-10.1-11.5-13.6-16.4-3.6-5.1-2.9-7.9-7.8-12.8-4.4-4.6-10.5-6.8-14.9-11.4z" fill="#84CABB" p-id="4837"></path><path d="M454.4 128.8c3-5-0.6-12.5-0.7-18 0-4.8 2-6.8 1.6-10.8-0.4-4.2-2.5-6.6-2.4-11.3 0-2.3 5.4-5.1 5.2-7.7-1-10.7-16.5-4.2-20.6-10.3-1-1.4-1.7-10.8-1-11.5 4.9-4.8 5 5.6 6.8 5.7 7 0.7 22.6-21.8 28.3-18.7-0.4-2.4-0.5-4.8-0.3-7.3-0.2 0.3-0.4 0.6-0.7 0.8 1.1-1.5 2.4-2.7 4-3.6-0.6 0.2-1.1 0.3-1.7 0.2 1.2-0.8 1.7-2 1.5-3.5 4.5 7.1 8.6-6.9 16.9-0.3 3.9-11.9 1.1 0 2.7-3.3-1.7 8.1 7.2 18.3 15.1 22.8 3.2 1.8 11.5 1.2 12.3 4.5 3.8-6.2 8.7 4.6 7.7 7.9 5.5-6.6 17.8-6.8 21-10.1 3.6 21.4 19.8-23.9 32.6-12.7 1.3 1.1-2.7 9.2 5.2 9.6-0.4 0.3-2.6 9.7 1.4 12.2-3.2 1-8.6 8.9-2 9 3.3 0.1 4.8-4.9 7.4-5.9 7.3-2.9 18.5-4.3 26 0.6 0.3-7.9 1.2-4.2 6-6.6 4.3-2.1-0.7 4.5 7.5-0.8 3.2-2.1 2.8-7 5.5-8.9-2.4 1.7 7-0.6 6.5-0.5 3.3-1.2 11.3-7.4 9.1 1.5 2.6-4.3 3.7 4.9 7.6 7.9 2.9 2.2 6.5 1.2 9.1 3.7 12.9 11.8-1.5 11.9-3.3 19.9-1.6 7.2 11.4 5.6 2.9 15-4.1 4.5-11.8 3.4-13.1 6.2-4.9-3.6-11.6 9.5-14 11.8-0.3 0.3-4.7 3-6.2 4.4-5.8 5-3.4 5-5.8 11.5-3.5 9.6-6.3 22-13 29.7-4.4 5-18.7 6.6-13 12.7-0.7 1-1.4 0.9-1.9-0.5-0.2 0.8-0.3 1.5-0.3 2.3 13.3-4.5 14.9 7.7 15 16.2 0.1 2.8 0.8 7.7 0.2 10.5-1 4.4-5.9 7.3-6.6 11.1-0.5 2.7 0.5 6.2 1 8.8 0.6 3.3 4 0.7 4.5 3.7 0.7 5-4.8 14.5-1.4 15.3-4 0.7 5.9 18.3 7.4 22.8 7.2-10.3 20.7 10.9 16.2-7.6 3.3-0.1 10.1-9.4 12.4-13.1 9.1 7.3 0.1 24.2-3.1 18.2-0.6 2.4-2.3 6.6-5.3 3.5 0.2 2-5.6 13.2-6.3 14.4-0.5 0.8-1.6 0.5-2.2 1.7-1.2 2.3-1.8 1.4-3.8 5.1-2.9 5.3-2.4 16.1-7.5 17.5-6.6 1.8-15.7-5.6-7.4-10.9-9.1 1.3-28.7 0.3-30.4 9.1-1.7-12.6-26.2-0.4-30.3-1.9-2.3-0.8-9.1-11.8-8.9-14 0.6-6.8 12.3-9.7 15.1-16.4 1.2-2.9-0.5-6.9 0.9-9.7 1.1-2.1 6.3-5.7 6.3-6.2 0.9-5.9-2.4-6-6-12.6-2.1-3.9-3.4-10.6-5.1-14.7-0.5-1.2-11.4-25.1-12.5-10.8-5.2-4.4-21.1-28.3-25.2-10.1-3.6-3.8 0.2-2.1-3.6-0.8-5.3 1.8-4.7 0.6-9.9 0.7-1.3-1.6-2.9-3-4.7-4-1.6 2.3-3.7 3.9-6.3 4.9-5.6 0-9.1-0.5-9.6-7.6-5.3 1.9-9.2 5.1-13.3 5.5 3.1-0.3-11.5-1.1-9.2-0.4-6-1.9-6.8-3.5-10.5-9.1-1.9-3-2.2-6.8-5.2-9.2-1.3-1.1-8-1.1-8.2-1.4-2.1-2.8 1.6-10 2.4-12.9 0.5-1.8-0.9-3.8-0.4-5.4 0.6-2 2.8-1.8 3.3-3.6 4-13.8 12.7-21.5 8.3-34.2z" fill="#F5D646" p-id="4838"></path><path d="M559.8 532.5c0-0.3 0-0.3 0 0z m15.8 10.7c-10.3 13.5-17.2-16.1-20.3-23.9-6.6-16.3 3.3-31.4 13-40.8-0.1 1 0.4 1.3 1.2 0.8-3.6 1.9 3.3 2.8 4.3 2.6-6.3 0.8-0.9-0.3-1.5 1.2 0-0.1-2.8-1-2.7-1 8.9 5.9 13.3 9.9 20.1 13.9 3 1.8 17 11 11.9 16.5 0.5 0.4-0.2-0.5 0.9 0.7-0.2-0.1 1.9 0.2 2.6 0.3 3-8.7 4.8-14.1 0-20.7 0.2 0.3 0.1 0.6-0.2 0.7 2.3-2.1 4.3-4.4 6-7 1.8 8.2 8.7 0.9 13.9 2.2 0.7 0.2 6.5 13.8 8.8 3.2 1.3 1.4 4 19.1 3.5 20.5 4.4-1.2 18.6-3 21 2.3 1.4 3-2.8 11.9-1.7 16.3 1.8 7.2 8.8 4.2 1.2 12.6-4.5 5-9.4 7.3-14.4 2.4-4.5-4.5-0.7-14.1-6-19-9.2-8.4-15.7 1.9-23.6 4.2-3.6 1.1-37.2 4.6-38 12z m-13.9-3.1c0.1 0 0.7-1.2 1.6 0.5-0.7 1.5-0.6-0.1-1.6-0.5z m0.7-2c0.1 0-0.9-2.4 1.6 0.2-0.1 2.7-0.7-0.2-1.6-0.2z" fill="#C9DE80" p-id="4839"></path><path d="M466 608.6c0.2 0 0.2 0.1 0 0z m6.3 23.6c-0.5 1.1 0 0.1 0 0z m62.5-48.3c0.1 0.6 0 0 0 0z m-1.3-0.5c-0.1-0.3 0.4 2.2 0 0z m-1.7 0.2h0.1-0.1z m-0.4-1c0.8 0.4 0.6 0.3 0 0z m1.8-13.4c0.6 0.5 0.2 0.1 0 0z m-0.5-0.5c0.2-0.1-0.8 0.3 0 0z m-6.6 19.9c-7.7 1.5 1.8 15 0.7 19.2-1.3 4.5-6.5 6.9-11.2 10.3-5 3.5-12.2 6.6-16.2 11-4.4 4.8-3.7 17.4-13.4 14.1-11-3.7-22.2-38-18.7-47.7 2.5-6.9 8.6-10.5 11-17.7 1.2-3.5 1.1-21.3-0.9-21.6 1.1 1 1.8 2.2 2.1 3.7 9.1-10.2 16.7 14.5 20.5 20.3 2.5 3.9 5 8.9 10.3 8.8 10.3-0.3 6.7-9.7 6.7-16 0-7-0.7-14.7 4.9-17.9 0.6-0.3 7.8 1.8 9.3 1.3 1.7-0.6 2.8-5.8 4.3-5.8 10-0.4 0.8 8.9-1.6 14.4-2.7 6-1.6 20.4-7.8 23.6z m-56 54.4c0.2 0.1 0.4 0.2 0 0z m2.6-4.8c0-1.3 0.5-2.4 1.6-3.1 0.7 3.1-0.4 5.5-3.2 7.1-0.1-1.7 0.4-3 1.6-4z m3.4-5.8c0.5 0.7 1.3 0 0.9 2.2-1.2-0.7-0.4-1.6-0.9-2.2z m83.2-74.9c-1.7-1.1-3.3-2-4.2-3.6 2.9-1.4 4.1 0 4.2 3.6z m-86 95.6c-0.1-2.4-0.3-4.7-0.4-7.1 1.4 0.3 5.5-0.9 7.3 1 0.2 0.1-7.1 6.3-6.9 6.1z m526.4-240.9c0.2-1.3 0.4-2 0 0z m-5 6.2c0.1-0.8 0-0.7 0 0zM947.1 385c0.1-0.1 0.8-0.8 0 0z m55.6 22.8c0.3 0 0.5 0.1 0 0z m0.1-0.7c0.2 0.2 0.6 0.6 0 0z m0.7-0.2c0.3-0.2 0.2-0.1 0 0z m-1.9 1.4c0.2 0.1 1.6 1.3 0 0z m-22.8-6.8c0.2 0.2 0.4 0.3 0 0z m-2.7 0c-0.6 0.6 0 0 0 0z m-2.3-2.6c0-0.1 0.6 1.3 0 0z m6.3-3.5c0.5-0.4 0.5-0.4 0 0z m-2.8-5.8s0.6 0.4 0 0z m4.5-5.6c0.2-0.1 0.7-0.2 0 0z m-4.6-10.6c0.2-0.7 0-0.1 0 0z m-0.3 1c-2.2 1.7 0 0 0 0z m-12.3 2.5c0.8-0.3 0.7-0.2 0 0zM953 378c1.1-1.7-0.1 0 0 0z m-14.5 34.7c0 0.1 0 0.1 0 0z m43.1-34.8c5.1 11.1-6.9 10.4-14.6 8.1-3-0.9-9.6-1.5-10.6-5-2-7.2 11.1-0.3 9.8 0.1 2.6-0.9 1.5-4.3 4.9-4.6 3.3-0.3 5.9 0.3 7.7-3.4 0 2.2 0.9 3.8 2.8 4.8z m-34.2 1.4c1.2-0.6-0.1 0.1 0 0z m34.5 13.4c0.1-0.3 0.1-0.4 0 0z m-65.6-10.2c4.8 1.5 4.3-2.3 7.2 0 4.5-6 0.3-26.1 4.9-29 2.5-1.6 3.9 4.7 4.5 4.6 5.7-1.5 1.4-4.3 4.3-6.3 4.2-2.8 9.4-7.7 14.2 0.9 4.9 8.7-4.4 29.9-7.9 38-2.2 4.9-6.2 8.4-6.7 14.1-0.2 3.1 2.6 8.7 2.4 10.1-0.9 8.3-4.6 3.4-13.1 7.2-2.3 1.1-10.4 6-12.6 7.6-2.8 2.1-6.5 7.4-9.1 8.7-2 1-5.1-1-7.1 0.2-4.1-0.7-6.3 1-6.6 5.1-1.8 2.9-4.4 4.2-7.7 3.7 0.4-0.2 0.8-0.4 1.2-0.5-3.7-0.5-7.4-6.6-9.6-9.7-4-5.6-9.1-3.3-5.2-13.2-2.9 0.5 6.9-16.1 8.3-19.5 0.4-1 2.7-6.3 3-7.7 2.2-9.2-4.8-11.2-4.2-17.8 5.8 2.7 5.6-8.1 11.8-10.8-1.1 8.4 5.6 4.4 5.9 4.8-0.6-1 3.7 0.7 4 0.9 1.1 0.9-3.8 4.5-3.2 5.6 1.5 2.9 4.7-1 6 1 2.5 3.9 5.8 5.4 7.2 10.4 1.3-5.3 3.7-8.6 1.7-14.5 1.8 2.7 3.8 4.7 6.4 6.1z" fill="#DEE341" p-id="4840"></path><path d="M428.4 454.9c-0.2-0.2-0.4-0.4 0 0z m47.3 55.6c-3.7-4.1-6.2-3.3-9.2-8.2-3.8-6.3 0.4-9.1-6.7-13.7-2.4 0.7-4.8 0.7-7.2 0-1.9-1.3-3.3-3-4.2-5.1-4.4-2.3-3.6-1.2-6-1.3-6.4-0.1-4.7-0.7-8 5.9-1.6 3.2-12.2 29.2-16.3 16.2-1.3 0-1.8 0.9-1.5 2.6-0.3-0.7-0.9-4-0.9-4 1.4 0.5 2.2-0.2 2.5-2-3.1-0.4 0.1-2.5-2.4-5.1-1.2 4.7-1.5 3.6 1.2 5.5-0.9 0-1.7-0.3-2.2-1-0.3 4-0.4 4.2-2.2 1.7 0.1 0.1 0.8 1.5 1 1.7 0.1 0.2-3-1.8-3.5-2.2-1.8 3.9-3.7 2.5-5 3.7-0.9 0.9-1.7 6.1-1.7 6.1-5.5 2.6-4.2 2.5-7.4-0.6-0.4-0.4 3.5-3.1 1.5-5.8-2.1-2.9-4.5-3.1-7.4-2.7-0.4 0.1-8 8.6-9 8.4-2.1-0.5-3.8-15-2.9-16.8 2.1-4.2 13.5-0.8 13.5-9.3 6.2 3.6 9.3-1.1 7.8-7.8 6.8 2.6 18-5.3 16.6-8.1-0.1-0.5 0.5-0.7 1-0.3 0-0.1-0.3-1.4-0.1-1.7-0.1-0.2 0.1 0.6-0.6 1 0.1-0.6 0-0.6-0.1 0-0.3-0.4-0.3-0.8-0.1-1.2-2.9 1.3 0.2-0.5-2.6-1.5 2.6-1.5 4.3-0.6 5 2.7 4.7-2.9 1.6-7.4 5.1-10.8 0 1.5 0.5 2.1 1.5 2 1-2 2.5-2.3 3.5-4-0.1 0.8 0.3 0.6-0.2 1.8 12.9-4.7-3.5-30.8-2.5-39.2 2.5 3.3 0.2-7.1 2.2 3 1.7-0.6 2.1-1.9 1.5-4 0.4 1.6 0.5 3.2 0.4 4.8 2.7-1.5 4.7-3.6 5.8-6.5-1.1-0.1-2.2 0-3.4 0.2 3.1-4.9 8.7-12.3 5.9-18.4-2.1-4.5-10.1-5.7-8.5-3.7-4.7-6 4.1-20.7 5.6-26.6 0.8-3.1-4.1-3-1-6.7 3.9-4.8 4.8 4.8 8.1-0.3-0.7-0.7 3.3 27.9 9.6 17.5-0.9 2-1.5 4.1-1.9 6.3 7.7-10.6 3 7.5 2.8 7.1 2 5.4 2.3 5.2 6.7 5.6 3 0.3-3.9 21 4.8 17.2 1.4-0.6-1.9-5 1.1-6.7 1.9-1 4.5-3 5.8-4.4 7 9.1 11.1 24.7 10.2 36.3-0.2 2.7-4.8 4.5-3.6 6.3 2.2 3.7 8.8 1.6 9.8 2.8 2.3 2.8-1.4 5.6-0.6 8 1.5 4.5 3 8.9 4.2 13.5 3.4 13 3.9 11.6 13 18.9-2-1.6-4.3 7.9-5.7 9-1.9 1.5-4.6 2.4-6.8 3.3-1.9 0.8-6-0.3-5.3-0.8-4.3 3-7.2 8.7-11 11.4z" fill="#D1E182" p-id="4841"></path><path d="M426.5 698.4c-1.4-1.2-1.6-2.5-0.7-4.1-0.5 0.5-1.1 0.9-1.7 1.2 0.2-1.7 0.2-3.4 0.1-5.1-3.9 1.9 4.3-9.9-0.2-12.1-5.3 8.1-4.7-3.7-3.9-6.2 1.6-4.8 8.6-0.5 7.7-8.5 2.6 3.1 9.9-4.3 11.5 0.7 1.1 3.5-5 5.2-6.1 7.4-3.6 7.1 2 23.6-6.7 26.7z m-2.1-30.4c0-0.7 0-0.8 0 0z m0.5 0.3c0.1-0.8 0-0.3 0 0z m11.7 0.5c0.1-0.6 0-0.2 0 0z m-34.7 10.1c-0.1-0.6-0.1-0.9 0 0z m22.2 0c-0.1-0.6-0.1-0.6 0 0z m-0.3 0.3c0.2-0.3 0.3-0.5 0 0z m-9.7 8.3c0-0.4 0.1-0.7 0 0z m25.1 2.1c0.1-0.2 0.3-0.8 0 0z m-25.4 0.8c-1.4-1.2-1.3-1.1 0 0z m26.5 2.9c-7.2-3.4 6.7-4.7 0 0z m-18.2-0.7c0-0.3 0.3-1.3 0 0z m7.8 5.8c-0.1 0.1-0.5-2 2.1-2.6 0 2-1.4 1.2-2.1 2.6z m-41.2-193c1.6-8.8 7.5-1 9.1 0.6 1.6 1.6-2.3 6.4-1.3 8.3 3.8 6.8 7.5-9.4 6.1-8.1 3-3 5 0.7 7.4-4.8 0.5 0.3 3.6 2.3 3.5 2.2-0.2-0.1-0.9-1.5-1-1.7 1.8 2.6 1.9 2.4 2.2-1.7 0.6 0.7 1.3 1.1 2.2 1-2.7-1.9-2.4-0.7-1.2-5.5 2.4 2.5-0.8 4.6 2.4 5.1-0.3 1.7-1.1 2.4-2.5 2 0-0.1 0.6 3.3 0.9 4-0.3-1.7 0.2-2.6 1.5-2.6 5.1 15.8 16.5-20.2 17.2-21.2 5.5-6.7 10.9 0.9 15.7 3.4 5.5 2.9 9.6 1.6 13.7 6.3 3 3.5 7.7 13.4 9.7 17.5 3 6.1 1.9 13.3 3.8 20.1 2.8 9.8 9.1 17.3 10.1 27.8-4.6-2.2-10.6 3.8-11-1.7 0.3 4.9 1.8 8.8 1.4 13.9-0.8 9.3-4.7 10-8.1 16.5-2.8 5.3-2.9 10.7-4.9 16.3-3 8.1-5.8 7.7-5.4 17.2 0.3 8.3-0.5 33.6-15.3 31.5-11.4-1.7-6.6-22.2-20.2-9.9-9 8.1-9.4 25.3-24.5 24-4.7-0.4-11.8-7.8-16.2-6-2.3 1-2.8 10.7-7.6 12.9-16.7 7.6-3.4-20.6-4-28.4-1-12.5-9.9-16-16.3-22.8 0.2-2.8 0.4-5.5 0.6-8.3-12.3 3.2-11.3-14.1-24.3-7.9 1.6-8.1-3.4-17.6-1.9-25.1 0.8-4.1 11-20.1 13-12.6 0.6-0.7 1-1.6 1.2-2.5 0.2 0.8 0.3 1.5 0.4 2.3 1.7-2.5 3-5.2 4-8.1 0.9 1.3 1.9 2.4 3 3.5-0.7-8 2.4-3.6 3.9-6.7 3 0.3 4-0.8 3-3.5-0.5-2.7 0-5.3 1.7-7.7 1.4-3.8 4.6-5.8 6.4-9.4 1.2-2.4-2.2-5.8 0.2-7.8-0.7 0.6 13.5 8.2 4.3 1.2 7.6 6.2 4.1-12.4 11-17.2 2.8 4.7 0.5 9.5 4.3 13.9 10.2-3.4 5.3-13.9 1.8-20.3z m6.8 189.7c-3.9-8.4 10.9-20 16.9-22.2 2 5.1-7 9.1 0.4 12.4-2.2 0.7-9 4.5-10.6 5.5-1.7 0.9-8.1-2.3-2.5 3-1.4 0.4-2.8 0.8-4.2 1.3z m64.1-42s-0.4 0.1 0 0z m-1.2-2.8c-10.9-5 13.3-5.3 0 0z m0.3 12.5c0.2-0.1 0.3-0.1 0 0z m0.1 0.2c0.1 0.3 0 0.1 0 0z m0.4 0.5c0 0.1-0.5-0.6 0 0z m-0.7-4.7c0 1.4 0 0.8 0 0z m-27 15.6c0.1 0 0.3 0.2 0 0z m1.4 5.8c-0.2-0.3 0.5 0.8 0 0z m-0.3 1.1c0 0.2 0 0.8 0 0z m0 0.7c0.2 0.3 0.4 0.7 0 0z m-20.1-9.1c0.6 0 0.3 0 0 0z m1.5 2.2c0.1-0.6 0-0.4 0 0z m0.5 0.6c0.5-1.3-1.3-1.6 1-2.7 1.1 2.1-0.5 1.5-1 2.7z m0 11.8c0.2-0.8 0 0 0 0z m0-0.4c0.2-0.2 0.1-0.1 0 0z m-0.1-0.8c1.1-2.1-0.3 0.5 0 0z m-0.4-1.5c-0.2-0.7-0.2-0.8 0 0z m-4.6 8.9c0.4-0.5 0.8-1 0 0z m0.6 0.2c0.2-0.5 0.3-0.5 0 0z m1.5-0.8c0.5-1.3-1-3.1 1.9-1.3-1.2-0.3-1.5 0.3-1.9 1.3z m-9.3-2.7c0.1 0.1 0.6 0.7 0 0z m-0.9 3.8c0.5-0.3 0.5-0.3 0 0z m1.5 0.4c0.3-1.7-4.3-3.4 1.9-1.8-0.5 0.7-1.1 1.3-1.9 1.8z m-19.4-13.1c1.3-1.2 2.2-2.7 2.7-4.5 0.9 0.8 2.8 5 0 6.3l-2.7-1.8z m-9.2 34.6c0.2 0 0.3 0 0 0z m-0.4-1.4c0 0.3 0 0.3 0 0z" fill="#E080B1" p-id="4842"></path><path d="M129.3 634.4c-0.2 0-1 2.3-2.2 1.2 0.6 1.2 0.5 1.3-0.4 0.3 2.2 2.8-2.2 2.9-1.2 4.3 0.1-0.4 0.1-0.7-0.1-1 0.4 0.1 0.9 0.2 1.4 0.2-0.3 0.9-0.3 0.9-0.7 1.5 0.6-1.1-1 0.3-1 0.3-1.1-4-6.7-7.8 0.9-7.7 0.8 0 2.6 0.4 3.3 0.9zM156 804.7c0.2 4.8-2.9 17.1-10 12.9-6.4-3.7 1.2-21.8 10-12.9z m-11.3 103.1c2.1-2.6 3.5-6.1 4.1-9.3 1.2 3.7-1.1 8.2-4.1 9.3z m20.1-203.1c-0.4 2.2-0.3 1.7 0 0z m-24.9 75.9c10.1 1.6 3 28-1.6 26.8-0.7-0.2-4.3-9.5-7.6-10.8-8.3-3.6-15.4 4.6-23.2 5.3-9.6 0.8-7.1 0-4.4-7.1 1.5-4 7.2-14.5 11.2-16.2 9.8-4.2 15.9 5.9 25.6 2z m11.6-14.9c-1.9 5.3-1.5 15.9-9.1 12.9 0.5 0.2-9.5-10.2-9.5-10.1-4.3-7.3-2.5-7.6 5.1-9 1.6-0.3 16-0.4 16.5 0.3 0.1 2.4-0.9 4.3-3 5.9z m-12.9-54.9c1.4 1.7 2.1 1.7 4.2 3 0-2.6 3-11 5.3-4.1 4.9-5 2 4.6 6.8 2.5-0.2-2.3 0.6-3.5 2.6-3.7 0.6 3 0.2 0.7 1.4 2.6-0.9-2 1.7-0.1 2 0.2-0.1-8.3 4.7-5.7 2.8-2 3.7-0.5 2.1-11.9 4.6-17.4 1-2.2 0.2-6.1 2.5-7.7 1.9-1.4 4.9 5.1 5.1 2.5-1.5 7.6 1.6 12.5 5.6 17.5 1.7 2.3 1.4 4.4-0.8 6.1 0.8 0.1 1.1 0.6 1 1.3 1.2-4.4 0 0.8 2.5-3.5 1.9 5.1 1.5 10.7 4.3 13.7 2.6-7.1 7.9-1 7.4-4.3 3.4 14.8-8.2 11.6-17.4 13.9-14.2 3.5-13.7 13.6-22.7 23.9 0.5-12.9-3.2-6.1-6.7-6.9-3.2-0.8-5.6-5.3-9.8-5.8 7.4-9.9 4.1-11.3-2.7-24.5-0.2 0.8 0.4 0 0.1 1.2-3.1-3.3-0.8-5.2 3.2-6.5-0.2-0.1-0.3-0.1-0.4 0.2-0.3-0.6-0.6-1.4-0.9-2.2z m-91.8 5.8c3.4-13.5-7.7-21.9-1.5-36.7 0.5 2.9 1.6 5.5 3.5 7.8 2.1-5 9.5-1.7 12.5-4.7 3-2.9 3.5-13.6 4.3-17.2 1.3-6.5-0.6-16.3 7.3-19.5 1.5-0.6 6.7 2 8.5 1.8 4-0.5 4.2-7.2 5.5-1.7 0.9-1.7 1.7-3.5 2.4-5.3 1.3 0.9 2.2 2 2.9 3.5 2.5-4 22.2 2.8 18.9-6.3 2.3 3.4 20.1 6.6 11 11.9 0.1-0.7-1.2-3.1-2.4-3.6-1.4 4-3.1 7.3-1.7 11.7 0.4-2 1.1-2.5 2.1-1.6-0.3 0.6-0.8 0.6-1.5 0 6.9 6.5-2.6 10.7 0.7 19l0.3-1.2c1.3 4.9 4.7 6.4 5.6 2.3 1.7 1.8-2.9 3.8-2 6.9 1 0.4 2 0.3 3-0.2-3.8 2.2 3.6 1.4-2.9 0.8 0.9 0.4 1.4 1 1.5 2-0.7-0.2-1.2-0.6-1.6-1.2 1.1 0.8 1.4 1.6 0.9 2.3 0.6 0.2 0.9-0.1 1-0.7-0.6-0.2-0.5-0.4 0.1-0.8 1.6 3.2 1.2 3.3 1.4 8.4 0.9-3.4 2.6-1.7 3.6 1-0.7 0.2-1.7 0.3-2.1 0.7-0.7 2.6 0.7-0.1-0.7 1.6 1.3 1.9-0.2-3.4 0.9 1.8 3.4-0.6 4 2.6 6.6 0.3 1 2.1-0.2 0.2 1.1 1.2-2.1 2.1 2.7 8.5 3 11.6-2.9-0.3-5.2 5.3-2.1 6.8 0-0.5 0-0.5 0.2-0.2-0.3-0.3-0.5-0.7-0.7-1 10.3 9.9 9.3 16.2 3.3 24.3 2.7 0.3 9.5 3.9 11.2 4.9 0.8 0.5 2.2-4.3 3.8-2.3 9.4 11.7-6.2 11.4-11.8 12.4-3.6 0.6-8 1.5-11.1 3.6-4.2 2.7-4.3 5-8.1 10-5.7 7.5-14.3 11.3-19.7 20.3-1-2.2-1.7-4.6-2.2-7-3.9 7.6-8.2 20.4-3 28.4 6.9 10.7 22 2.8 26.9 15.6 1.9 5-3.3 13.5-0.6 17.8 2.6 4 5.7 1.6 6.6 2.8 4.6 6.2 9.1 19.9 11.2 29.3 6.3 28-22.8 40.1-43.4 44.1-5.1 1-5 2.5-10.5 1.8-3.7-0.5-5.7-6.1-11.7-4.9-7.9 1.5-7.7 11.2-13.4 4.8-1.6-1.8-5.8-20.8-5.9-22.9-0.1-2.2 1.7-6.6 1.6-7.5-0.4-7.2-0.4-6.8-3.7-13.3-2-4-4-7.2-5.9-11.4 0.6-3.1 0.1-5.9-1.4-8.7-1.4-1.5-3.1-2-5.1-1.6-5.2-7.7-5-21.8-8.3-31.8-5-15.1-5.7-30.5-2.6-46.4 2.3-11.8 11.4-20.7 11.6-32.9 0.1-4-3.4-9.6-0.4-13.2 2.9-3.5 8.7 0 12.3-2.5 16.1-11.4-2.4-11.6-9.3-15.2z m77.4 59.7c6.2-0.4 4.2 1.8 0 0z m3.3-9.5c5 0.9 2.5 1.8 0 0z m-1.9 81.6c-0.7-2.4-0.1-4 2-4.8 1.9 1.2 2.4 3.1 1.4 5.4-1.4-2.7-1 0.1-3.4-0.6z m-2.5-183.1c-0.1-0.7-1.2-2.5-0.6-4.1 1.8 1.6 0.9 2.2 0.6 4.1z" fill="#F3ED50" p-id="4843"></path><path d="M138.6 710.8c0.3 0.8 0.6 1.6 1.1 2.3 0-0.2 0.1-0.3 0.4-0.2-1.8 1.4-2.9 1.1-3.5-1 2 1.6 2.6 1.2 2-1.1z m-3.1 7.4c0.3-1-0.6-1.6 0.5-1.6 0.7 0.9-0.3 0.8-0.5 1.6z m89.1 12.9c0.5-1.2-0.5-2.4 1.4-3.5-0.2 1.8-0.8 2-1.4 3.5z m-59.4-25.3c0.3 1 1 1.7 2.1 2-0.2 1.7-1.3 2.2-3.5 1.5-0.8-2-0.4-3.1 1.4-3.5z m84.7 12.1c-0.1-0.1 0.4 0.2 0 0z m-1.1 2.1c2.5-0.8-0.3 0.1 0 0z m-19.6 5.3c0.2 0.2 0.7 0.5 0 0z m-65.4-19.6c-1.3 0.9-2.7 0.9-4.1 0 0.6 1.8 1 3.7 1.2 5.6-0.4-0.2-2.9-2.1-2-0.2-1.2-2-0.8 0.5-1.4-2.6-2 0.1-2.8 1.3-2.5 3.7-4.9 2.2-1.9-7.4-6.9-2.5-2.2-7-5.4 1.5-5.3 4.1-2.2-0.9-9.8-9.8-7.1-12.6-1.3-1-0.2 0.9-1.1-1.2-2.5 2.2-3.2-0.9-6.6-0.3-1.2-5.2 0.4 0.1-0.9-1.8 1.4-1.7 0.1 0.8 0.7-1.6 0.4-0.3 1.4-0.5 2.1-0.7-1-2.6-2.7-4.4-3.6-1-0.2-4.3 0-5.7-1.4-8.4-0.6 0.3-0.7 0.6-0.1 0.7-0.1 0.7-0.4 0.9-1 0.8-0.2-1.2 0.5-0.8-0.9-2.3 0.4 0.6 0.9 1 1.6 1.2-0.2-0.9-0.7-1.6-1.5-2 6.3 0.5-0.8 1.4 2.9-0.8-1 0.5-2 0.5-3 0.2 0.3-2.5 1.2-4.7 2.9-6.6-0.4 0.4-0.7 0.3-0.9-0.3-1 4.5-4.3 2.3-5.6-2.3-0.1 0.4-0.1 0.8-0.3 1.2-3.5-8.8 7.8-11.4-0.7-19 0.6 0.6 1.1 0.6 1.5 0-1-0.8-1.7-0.3-2.1 1.6-0.4-1.4-1-10 1.8-10.9 0.8-0.3 2.4 2.3 2.3 2.8 3.7-2.2 1.4-5.5 1.6-9.6 0.4 0 3 0.4 2.9 0.2-0.5-1.2-0.1-0.3 0.2-1.5-0.5 0-0.9 0-1.4-0.2 0.2 0.3 0.2 0.6 0.1 1-0.9-1.3 3.2-1.7 1.2-4.3 0.9 1 1 0.9 0.4-0.3 0.7 0.6 0.7 0.8 3.1-1-6.7 2.5-8.8-8.3-9.6-11.2-1.3-5.1-0.8-11.7-1.1-15-0.3-2.4-4.5-11.2-2.6-14.9-0.3 0.7-0.4 1.7 1.4-2 3.7 9.6 4.2-1.2 8.5 0 2.9 0.8 9.5 8.3 10.7 8.3 5.8-0.1 5.4-8.4 9.4-8.1 3.9 0.3 4.8 12.3 11.1 5.1 3.2-3.7-1.6-8.8 1.1-14.8 0.7-1.6 3.8-4.3 5.2-5.4 3-2.2 5.1 2.1 6.3 0.8 4.8-5.6-8.4-24.8-9.1-33.7 11 12.2 8.1-28.5 14.1-13.4 2-6.8 13.3-1.4 12.3-9.6 9.3 4.2 22.9-15.6 28.6-12.9 1.3 0.6 3.6 10.1 5.8 12.2 3.9 3.7 8.2 2.7 12.1 5.2 11.8 7.4 0.8 5.8 1.9 16.3 5.5-5.9 9.8-2.5 15.8-2.3 2.4 0.1-1.4 13.6 6.7 10.9 1.4-0.4 2-6.2 3.6-7.5 3.7-3 3.5 1.8 5.6 0.9 2.7-1.2 13.5-20.5 11.9-3 6.1-6.8 6.8 6.6 4.5 11.4-5.6 11.5-16.4 8.8-22.7 17.4-2.7 3.7-0.6 5.8-3.2 8.7-2.3 2.5-6.6 2.4-8.9 4.8-6 5.9-7.8 21.4-8.9 27.9-0.8 4.6-3.4 16-2.6 22.1 1.5 11.7 12.5 8.9 15.6 17.8 2.2 6.1-2.4 6.2-3.4 10.9-0.9 4.2-0.1 5.9 1.4 10 1 2.5 4.1 3.9 5.1 8.1 1.2 5.3-2 12-2.1 17.4 3-2.6 5.2 6.3 3.3 9.9-2.5 4.6-20 15.9-24 17.3-0.5-2.2-0.8-4.4-1-6.6 2 1.1 8-2.5 5.7-4.5-5.5-4.9-35.1 8.4-40.4 12.1-1.1-2.4-1.8-4.9-2.1-7.5 0.5 3.4-4.7-2.8-7.4 4.3-2.7-2.8-2.3-8.7-4.3-13.7-2.8 4.8-1-1.6-2.5 3.5 0.1-0.8-0.2-1.2-1-1.3 2.2-1.8 2.4-3.8 0.8-6.1-2.6-3.3-9.7-12-5.4-17.4-1 1.3-4.8-1.9-8.2 4-2.8 4.6 2.4 13.3-4.1 14.5z m-41.4-43.4c0.4 1.6-0.1 2.4-1.5 2.6 0-2-0.1-3.9 1.5-2.6z" fill="#D1E182" p-id="4844"></path><path d="M428.4 454.9c-0.3 0.1-0.1 0.1 0 0zM326.4 251c3.7 12.4 7.6-5.4 8.5-5.8 9.7-4.8 4.1 7.3 13.2 7.7 11.7 0.5 16.1-26.9 17-33 7.8 2.9 19 14.3 20.6 22.4 1.7 9-4 16.2 0 23.7 1.3 2.4 5 4.6 6.7 9.3 2.1 6 0.5 11.9 5.9 16.3 3.9 3.2 11.6 0.9 15.1 4.9 4.1 4.7 1.2 16.7-2 21 8.5-0.7 10.3 12.1 7.3 18-0.1-2.3 1.6 3.9 2 4.8 0.7-0.5 1.4-0.9 2.1-1.3-1.9 8.6 1.8-1.8 3.4 2.1 1 2.5-1.6 5.5-0.9 7.6 1.6 4.5 1.3 4.3 4.3 9.1 1.9 3 5.7 8.8 5.9 12.1 0 0.7-11.7 22.9-6.2 22.5 0.5 0 2.4-2.9 1.7-3.3 11.9 6.7 7.4 16.4 1.4 25.7 1.1-0.2 2.2-0.2 3.4-0.2-1.2 2.8-3.1 5-5.8 6.5 0.1-1.6 0-3.2-0.4-4.8 0.7 2.1 0.2 3.4-1.5 4-2.3-10.1 0.2 0.4-2.2-3-1.2 8.6 15.6 34.4 2.5 39.2 0.9-0.9 0.9-1.6 0-2.2-0.2 1.4-2.5 2.6-3.2 4.3-1 0.1-1.5-0.5-1.5-2-3.7 3.5-0.2 8-5.3 10.8-0.5-3.4-2.1-4.3-4.7-2.7 2.8 1-0.3 2.8 2.6 1.5-0.2 0.4-0.1 0.8 0.1 1.2 0 0 0.8-0.9 0.8-1-0.2 0.3 0.1 1.5 0.1 1.7-0.5-0.4-1.1-0.2-1 0.3 1.4 2.7-9.9 11.6-16.6 8.1 1.4 6.6-1.7 11.6-7.8 7.8-0.1 4.8-6.8 7.8-10.5 8.6-2.8 0.6-3.1-1.9-4.7-2.1-1.7-0.3-5.3 0.9-8.3 0 2.7-2.4-0.6-18.3-2-21.3-1.7 0-3.4 0.4-4.8 1.3-0.6-2.4-0.8-4.9-0.6-7.4l3.6 1.2c-2.4-8.5 3-14.4 3.2-22 0.3-11.6-1.3-7.9-10.8-4.4-6.4 2.4-11.5 4.6-18.4 3.7-9.2-1.2-6.9-5.2-13.6-8.1-6.2-2.7-14.2-0.5-20.8-1.3-9.3-1.1-18.6-4.2-26.5-9.3-7.7-4.9-4.8-2.5-6.2-8.1-0.2-0.8 2.9-3.5 2.9-4.8-0.2-3.8-4.1-6.8-5.6-10.1-1.5 5.2-5.4 5.4-8.4 8.9-1.8-2.3-9.3-13.8-11.4-7.3-7.5-9.9 8.3-26.7 11.5-34.1 3-6.9 1.6-23.3 11.6-19.8-0.3 0.2 8.1-1.5 7.4-1 1.2-1 5.7-11.6 6.6-13.4-12.6 0.2-0.6-22 3-16.5 0.7-7.3 11.9 4 15.9-0.4 1.8-2-1.7-18.6 3.8-14.7 0.9-2.3 1.2-4.8 1-7.3 15 11 4.2-24.4 3.6-27.7-0.7-3.8-3.8-16.9-0.7-19.9 3.4-3.4 12.2 0 13.7 4z" fill="#ED785E" p-id="4845"></path><path d="M674.6 500.6c1.3-0.2 0.3-0.1 0 0zM664.2 514c0-0.1 0.2-0.5 0 0z m49 17.5c0-0.5 0-0.4 0 0z m-51.1 17c-1.6-3.7 0-4.1 3.1-3.2 0.2 2.2-1 2.5-3.1 3.2z m57.2-34.2c0.4 0.2 0.1 0.1 0 0z m2.2 3.3c-0.1 0 0.3 0 0 0z m-33.1 20.7c0.3 0 0.5 0 0 0z m0.5-0.5c-0.2-0.1 1.3-0.7 1.9-0.3-1.3 2.9-1 0.9-1.9 0.3zM667.2 556c0-0.1-0.3 1.3 0 0z m-3.7-7.6c-0.1 0 0.9 0.1 0 0z m0.6 0.3c0.9-0.3 0.4-0.1 0 0z m-0.5 3.1c1.1-1.1 0.6-2.4 2.4-2.5-0.4 2.3-1.7 1.8-2.4 2.5z m11.3-24.6c0.1 0.3 0 0.2 0 0z m-0.4-0.5c-0.2-0.4-1.3-0.6-0.7-1.7 0.8-0.1 0.3 0.9 0.7 1.7z m0.6-7.9c0.2 0.1 0.4 0.2 0 0z m0.4-0.2c0 0.1 0.2 1.4 0 0z m-11.4 9.4c-0.2 0.5-0.2 0.5 0 0z m-0.9 0.7c-0.2 0-0.4 0.1 0 0z m2.7-1.2c-0.1-0.1 1.2 1.4 0 0z m-1.1-0.1c-0.8-1.3-2.3-0.9-0.9-2.5 0.9 1.5 1.5 3.1 1.9 4.8-0.3-0.8-0.6-1.6-1-2.3z m-0.1-2.8c0 0.4 0 0.5 0 0z m-2.5-3.5c1.2-0.4 0.8-0.2 0 0z m0.6-3.2s-0.7-0.2 0 0z m0.9 1.9c0.2-0.5 0.1-0.2 0 0z m0.4-0.9c0.1 0.4 0.2 0.7 0 0z m0.2-1.8c0.1 0.2 0.3 1.3 0 0z m0.1-0.7c0 0.2 0 0.7 0 0z m-1.7-13.4c-0.2 0.8-0.1 0.5 0 0z m0.5 0.6c-0.1 0.9 0 0 0 0z m-3.1 3.9c0.5-0.4 0.8-0.7 0 0z m3.4 0.2c-0.1 0 0.5 0 0 0z m0.9 1.6c0.2 0.5 0.2 0.4 0 0z m0.2 0.9c0.4 2.1 0.4 2.3 0 0z m0 2.3c-0.1-0.1 1.6 1 0 0z m-1 1c0.5 0-0.8-0.1 0 0z m-1.9-1c0.8 0.8 0.2 0.2 0 0z m-2.1-1.5c0 0.2 1.4 0.4-0.3 1.8-0.3-0.8 0.4-1.4 0.3-1.8z m-33-206.3c0.5 4.2-2.3 7.4-2.5 13-0.1 4 3.1 18.5 6.1 11.3 3.1 9.5 11.6 5.6 17.6 11.3 4.4 4.2 3.1 11.3 5.8 16.3 1.9 3.5 6 5.3 7.8 8.9 0-2.9 1.3-4.8 4.1-5.8-0.1 6.1 5 7.1 4.3 14-0.4 4.4-10.1 11.8-5 14.1-0.3-0.8-0.3-1.7 0.1-2.5-1.1 0 5.2 1.3 3.7 0.1 5 4.3-0.4 3 2.1 7.5 4.4 7.9 7.6 9.2 11 19.9 10.7 33.9 12.4-14 20.3-17.2 0.1 0.5 1.8 4.6 1.7 4 0.4 0.4 2.4 4.2 3.2 5.1 1.7 1.7 3.1-6.4 3.1-5.9 6.5 3.8 6.1-1.3 11.3-2.8 4.6-1.4 5.8-3.2 11.4-4 12.9-1.9 13.2 0.1 15.8 11 7.6-7.4 11.9 9.6 14.8 12.4-5.2 1.6-11.2 7.3-14 11.6-1.9 0.4-3.3 1.5-4.2 3.2-0.4 2.1-0.2 4.1 0.7 6.1-3.4 6.2-15.8 12.6-17.7 20.5-2.6-3.3-4.7-5-6.2-0.8-4.8-3.6-5.3 2.7-9.4 6.1 0.1 0-10.2 6.4-10.4 6.7-3.2 5.4-1.6 14.5 1.4 21.1 2.3 5.1 10.1 9.1 8.9 15.9-0.4 2.4-8.9 7.1-10.4 9.9-2.2 4.1 0.2 12.2-3.4 15.1-6.4 5.3-1.9-2.4-4.8-3.6-7.4-3.2-16.8 0.7-19.2-9.7-1.4-6.2 8.4-22.1-0.6-25.6-3.7-1.4-14.9 10-16 11.1-1 1 0.8 3.5-3.4 7.1-4.1 3.5-12.7 1.2-17.7 2.6 0.7-1.7-2.6-19.6-3.5-20.5-2.2 10.4-6-3-10.1-4-10.7-2.7-10.9 9-11.5-8.5-0.1-3.1 1.6-4.3 1.1-7.4 0-0.3-4.9-14.8-2.9-12.8-2.4-2.3-8.6-2.1-7.4-1-1.6-1.4-5.6-10-1.4-6.4-5-11.3-12.7-11.6-22.3-13.7-1.8-0.4-13-2-13.5-2.5-6.1-5.6 2-5.9 4.2-9.9 1.5-2.7-5.4-21.8-0.4-26.6 4.6-4.4 7.1 3.8 12.5 5.5-2-3.8-4.1-29.1-1.9-29.6-2.1-0.7-4.3-1.5-6.5-2.2 4.4-1.7-3.8-4.8-5.5-7.5-2.4-3.7-3.9-8.2-5.5-12.3-2.9-7.5-0.6-8.3-0.1-12.5 9.9-1.6 13.6-13.3 22.1-17.4-0.5 2.8 0.3 1.8 0.9 4.3 8.6-7.4-3.2-20.8 4.1-31.1 1.8 1.8 24-2.6 27.9-3.1-10.5 6.8 3.9 10 9.4 11.2z m62.9 230.4c0.9-1.4-0.2 0.3 0 0z" fill="#F5D646" p-id="4846"></path><path d="M879.7 145.8c0.5-8.2 8-11 9.2-1.8 0.7 5.9-5 4.7-0.8 12.5 2.8 5.3 7.7 5.7 10.2 9.4 1.8 2.6 2.1 14.3 3.3 15.4 2.6 2.3 3.7-0.4 6.2-0.7 2.1-1.3 3.6-3.2 4.4-5.8 1 0.5 2.1 1 3.1 1.5 6.4-2.6 10.9-1.6 16.7-1.5 3.4 0.1 5.6-9.3 7.7 0.7 0.4 2.1-2.9 4.3-3.2 6.2-0.3 1.9-2.3 29.8 5.7 19.8 3.1 3.4 1.3 8.8 3 13 1.3 3.3 3.8 4.9 5.1 7.8 3.1 7.4 6.4 17.7 4.6 25.6-2.2-1.3-9.7 7.3-12 9-6.8 5.2-9.3 4-9.1 16-3 2.8-11.4 6.6-9.3 16-4.3-3.4-11.4 2.3-8.9 5.6 0 0-5 4.2-6.8 6.1-5.6 6-11.6 5.5-5.9 14.4-2.6 1-0.7 8.9-4.8 11-2.2 1.2-5.8-2.2-7.7-1.3-2.9 1.5-4.2 3.7-7.2 6-7.9-8.5-9.5-3.5-17.5 2.5 0.1-0.6 0.4-1.2 0.7-1.6-10.7 7-3.3 24.1-21.2 15.9-11.7-5.3-10.6-8.3-21.3 2.6-15-13.6-11.5 5.1-14.8 17.2-1.2-0.9-8.5-1.6-9.6-1.8-5.7-1.3-1.5-6.6-8.4-0.6-3 2.6-4.2 9.6-7 13-0.9 1.1-11 12-11.2 12.1-17.2 4.5-2.5-49-7.1-55.1-5.4 6.9-6.6-8.4-7.1-9.9-0.3-0.9-8.2 2.2-9.2 2.1 6.5-7.5 8.8-21.1 12.7-30.4 4-9.5-2.8-31.7 8.5-34.9 0.2 0.9 3.4 6.9 4.7 6.5 1.4-0.4-1.8-12.7-2.3-14.4 1.9-1.6 3.6-0.6 5.3 3-2.3-5.2 4-8.7 4.3-13.2 0.3-4.7-1.5-7.7-2.3-12.2-1.3-7.2-1.2-17.7 4-23.9 0 0-5.7 0.2-3-2.3-0.6 0.9-1.4 1.2-2.3 1 0.1-4.7-2.1-1.1-4.8-4.3-3-3.6-3.2-6.9-3.9-11.6 4 0.4 3-11.4 10.1-12.7-2.7 0.5 7.6 2.7 6.6 2.3 7 2.9 7 11.2 10.7 12.9 3.7 1.8 16.3 0 18-5 1.1-3.3-7.4-13.5-10-15.5 11.2-1.3 0.6-5.1 0.9-9.6 0.5-6.7 0-11.7 2.2-18.9 0.2-0.6 2-9.6 3-10.1 4-2 8.9-0.8 6.4 5.5 9.2-1 0.6-8.5 5.5-10.7 7.6-3.5 20.2 10.8 23.7 15.2 6.1-11.7 15.4 1.6 20.3 1.8-1.5 1.5-2 3.1-1.5 4.9 2.9 2.4 10.8-3.7 13.4-4.7z" fill="#DE9FC5" p-id="4847"></path><path d="M722.9 493.9c0.5-1.3-0.6-2.3 1.1-2.2-0.1 0.8-1.3 2.6-1.1 2.2z m9.9 5.7c1.3-0.1 1.8-0.2 0 0z m37.1 18.8c0.9-0.1 1.1-0.1 0 0z m17.6-12.9c1.1 0 0.6 0 0 0z m37.1-14c0.3 0.1 0.2 0.1 0 0z m-112.1 14.2c-1.8-11.4-10.9-16.5-11-28.5-0.1-9.7-1.1-2.8 3.6-9.8 2.2-3.3 11.4-11.2 14.9-13.7 0.8 0.6 1.4 1.3 1.9 2.2 1.4-4.3 3.7-2.4 6.2 0.8 1.6-6.9 9.2-8.7 13.3-13.7 4.3-5.2 0.9-8.3 3.8-13 3.4-5.6 12-8.2 15.8-13.4 3.2-4.2 4.5-15.2 11.5-15.9-9.4-1.1 4.6-22.2 10.4-23.3 11.5-2.1 10 13.6 15.6 16 1.6 0.7 6.6-4.7 10.6-1.5 4.8 3.8 1.6 8.5 1.4 13.2 1.3 1.4 2.3 3 3.3 4.6-1 1.4-2.2 2.6-3.7 3.4-1.8 5.6-6.4 0.7-5.3 9.2-5.8-6.7-0.3 3.5 1 5.5 2.8 4.3 9.2 5.6 11.6 10.5 7.6-13.1 19.6 13.9 9.1 12.7 3.1 4.4 1.7 3 4.1 0.3-0.1 0.7-2.3 20.3 3 8.8-1.4 3.3-2.2 4.2 0.6 7.6 6.3-8.4 11.7 7.9 19.8 6.6 4.1-0.7 4.8-8.8 9.1-8.4 6.9 0.7-5.2 13.7-6.9 14.8-7.1 4.5-11.5 1-19.2 3.6-6.2 2.1-11.6 8.1-17.4 10.9-13.3 6.4-5.2 0.3-10.1-8-3.2-5.4-17.1-9.8-22-7-2.7 1.6-9.2 15.1-7.3 17.6 2.1 0.8 4.1 0.4 6-1.2 0.3 3.7-3 5.2-3.9 8.4-1.2 4 0.1 4.8 0.1 9.2-8.2-4.9-14.7-2.8-22.2-5.9-6.3-2.7-3.9-5.9-7.2-10.3-3-4.1-2.3-3.8-6.4-6.5-1.2-0.8-8.7 1.5-9-1 0.9-2.1 2.4-3.6 4.5-4.5-6.5-3.6-7.8 3.3-12.1 4.9-4.5 1.7-8.6-2.4-13.4 2.4-3.2 3.2-3.2 8.3-4.1 12.4z m137.5-19c0.2-0.2 0.1-0.2 0 0z m-0.6 0.3c0.6 0.4-0.2-0.2 0 0z m-17.1 3.5c-0.3-0.4 0.3 0.5 0 0zM815 502.1c0.1 0 0.3 0.2 0 0z m0.2 0h0.1-0.1z m0 0.1h0.1-0.1z m-26.8 2.7c0.3 0.2 0.2 0.1 0 0z m-6.1 4.6c0.3 0 0.3 0 0 0z m-0.5 5.1c0.8 0.3 0.4 0.2 0 0z m-3.5-1v0.2-0.2z m-7 3.3c-0.1 0.2-0.4 0.6 0 0z m-0.4-0.1z m-6.8-3.5c-0.1-0.5 0 1 0 0z m-0.3-0.8c0.5-0.4 0 0 0 0z m-0.2-0.7h0.1-0.1z" fill="#94CFB2" p-id="4848"></path><path d="M621.3 188.6c3.3-0.3 5.2 0.1 5.7-2.8 5.7 7.1 4 16.7 12.1 15.7 2.4-1.9 4.6-3.9 6.6-6.2 2.5-5.3 4.9-5.7 7.4-1.1 4.8-1.7 8.8-5.8 13.7-7.2 0.7 3.8 2.4 7 5.1 9.8 4.3-14.5 6.3-15.2 19.3-10.7 0.4 0.1 0.5 3.6 0.5 3.7 1.9 3.9 7.4-18.2 8.5-17.2 4.1 4 14.9 0.4 15.9-6.9 4.5 1 4.6 6.6 8.6 7.6 5.9-1.8 18.8-21.4 30.5-11.9-0.9-15 15.3-4.4 19.8 2 4.5 6.3 3.9 27.9-4.3 27.1 0.7 4.7 0.9 8 3.9 11.6 2.7 3.2 4.9-0.3 4.8 4.3 1 0.2 1.7-0.1 2.3-1-2.7 2.5 3.1 2.4 3 2.3-5.1 6.2-5.3 16.8-4 23.9 0.7 3.9 3 6.8 2.5 11.1-0.6 4.6-6.7 9.3-4.5 14.3-1.7-3.5-3.5-4.5-5.3-3 0.5 1.7 3.8 14 2.4 14.5-1.5 0.5-4.4-5.2-4.7-6.5-7.3 2.7-5.9 7.3-6 14-0.2 8 0.3 12-2.4 19.2-3.5 9.1-6.1 24.4-12.8 32.1 0.5 0.1 9.2-2.4 9.2-2.1 0 1.8 2 16.4 7.1 9.9 3.3 4.6-1.6 15.6-1.6 21 0 7-0.4 8.4-0.4 13.3 0 5 3.9 31 8.7 31.5-3.5 0.3-10.4 8.4-10 13.1-3.1-2.8-6.2-18.2-13.9-10.9-1.6-7 1.8-6.8-4.3-10.5-4.8-2.9-6.9-1.1-11.7-0.4-6.5 0.9-16 10.5-22.5 6.7 0-0.5-1.4 7.6-3.1 5.9-2.6-2.7-4.2-5.7-5-9.1-10.1 3.9-9.8 52.8-20.8 15.2-3-10.2-6-10.1-10.4-17.7-0.3-2.3 0.2-4.4 1.2-6.5-1.1-0.4-2.2-0.8-3.4-1.2-1.4-1.9-3.8 2.1-3.8 2.4-4.9-2.2 4.5-10.4 5-14.1 0.9-6.6-4.5-8-4.3-14-2.8 1-4.2 2.9-4.1 5.8-1.8-3.7-5.9-5.3-7.8-8.9-2.7-5-1.3-12.1-5.7-16.4-6.1-5.9-14.2-1.5-17.6-11.3-3 7.3-6.5-11.1-6.2-15.5 0.4-6.1 4.6-14.1 6.1-20.8 1.5-6.8 3.9-8.1 6.5-12.1 1-1.6 8.3-12 8-14.9 3.1 3 4.7-1 5.3-3.5 3.1 5.8 12.6-10.9 3.2-18.2-2.2 3.3-11.5 12.6-11.5 12.9 0 19-8.3-4.1-17.3 7.7-1.5-4.5-11.7-22.1-7.4-22.8-4.7-1.2 1.1-6.6 1.5-11 0.6-7.5-4.6-4.3-4.7-12.6-0.2-7.9 7.3-7.6 8.1-13.6 0.3-2.7-4.4-4.8-4.3-7.5-0.4-3.2 3-4.9 3.3-8.5z" fill="#C7E8FA" p-id="4849"></path><path d="M343.1 686.6c0.7-1-0.4-2 1.4-2 0.2 1.5-0.9 1.1-1.4 2z m5.7 5.3c0.3 0 0.6 0 0 0z m-19-149.5c3.9 11 27.1 12.1 15.4 25-0.1-0.8-0.2-1.6-0.4-2.3-0.2 0.9-0.6 1.8-1.2 2.5-2.1-7.6-12.6 9.1-13.6 13.9-0.8 4 3.5 6.7 4 11s-0.7 9.7-1.4 12.9c12.8-6.3 12.4 11.7 24.3 7.9-0.3 13.8 5.8 7.8 13.4 18.2 5.9 8 3.3 19.6 1 28.3-1.5 5.8-3.7 18.8-12.6 15.3-4.5-1.7-2.9-11.1-5.6-13.6-8-7.5-35.1 6-30.2 18.3 2.8 7.2 14.2 3.1 2.6 11.1-3.2 2.2-19.8 4.7-21 7 2.7-5.1-2.2-9.2-9.2-7.4-9.4 2.4-4.9 12.4-11.4 16.7-4.5-8.1-18.3 5.2-24.2 0.2-2.2-1.9-0.3-14.3-5-10.6 0.2-4.2 2.5-13.7 1.9-17.3-0.9-5.7-2.1-3.8-3.9-7.6-2.3-0.7-3.3-2.3-3.2-4.9-1.7-3.4-0.9-6.2 2.4-8.5-0.3-3.8 2.1-4 0-8.3-2.2-4.7-10.4-4.9-12.9-10.4-1.6-3.6-0.2-7.8-0.2-11.5 0-11.6 1.4-16.1 3.9-25.4 1-3.9 0.7-9.6 2.4-13.3 3.6-7.3 5.6-5.3 10.7-10.1 4.1-3.9 0.6-4.3 2.9-7.3 1.6-2.1 3.6-3.9 5.9-5.4 0.6-4.3 2.9-5.6 6.9-3.9 19.2-11.6 23.7-38 36.4-55.2 2.8 6.5 0.9 9.1 2.4 14.4-3-0.9-2.2-0.1-4.7 1.2 10.2 7.4 10.4 2.6 17.2-6.1 2.4 5.8 1.5 7.4 2.5 12.4 0.5 3.4-1.2 11.1 4.5 12.8z m21.3 159c1.7-1.5 0.2-2.3 3-1-0.7 1.1-1.7 1.4-3 1z m-5.2-9.5c0.4-0.5 0.3-1.5 0.6-2 1.6 2.5 0.1 1.3-0.6 2z m-3.2 8.3c0.6 0 1.3 0 0 0z m-0.5 4.1c0.3-0.2 0.1 0 0 0z m14.9-32.2c-0.1-1.4-0.1-1.1 0 0z m-31.9 11.1c0.3-0.4 0.5-0.6 0 0z m4.3 0.6c0.2-0.2 0.3-0.3 0 0z m0.8 5.8c0.9-1 0.1-0.2 0 0z m-10.1 3.7c1.2-0.5 0.2-0.1 0 0z m-31.4 9.1c1.1 0.3 0.6 0.2 0 0z m0.7-0.5c1-0.2 0.7-0.2 0 0z m-7.6 6.1c1.1-1.2 0.3-0.4 0 0z m-21.5 4.3c0.7 1.2 0.5 0.8 0 0z" fill="#F9C99D" p-id="4850"></path><path d="M380.8 92.2c2.4-9.2 4-2.4 8.7-2 2.9 0.3 13 2.9 16.1 3.9 14.4 4.4 13.4 16.8 18 29.9 4.9 14.2 8.4 7.8 21.2 7 14.5-1 11.9 4.3 7 13.9-3.9 7.7-6.5 18.2-8.9 27-3.5 13.2-1.3 8.2 5.2 14.8 3.5 3.5 4.9 8.6 8.1 12 4.8 5 5.8 2.9 10.5 4.9-3.3-1.4 14.1 2.5 8 3.1 5.5-0.5 7.9-5.6 12.4-7.3 0.5 7 4 7.5 9.6 7.6 2.6-1 4.7-2.7 6.3-4.9 1.3 0.7 2.4 1.7 3.4 2.8 1.2 1.3 2.6 2.4 4.1 3.4 2.8 0.9 4.6-0.2 5.5-3.3 2.6-0.7 3.3-0.8 5.2 1.3 3.8-18.8 20.2 5.7 25.2 10.1 1.8-14.2 13 11.9 13.6 13.6 2 5.7 11.5 19 11.6 24.1 0-2.5-7.8 10.7-8.5 12.3-2.4 5.1-4.1 11.1-8.4 15.6-3.4 3.5-4.4-7.6-6.8 4.8-0.8 4.2 4.7 6.1 5.7 9.6 1.2 4.1 0.3 20.7-7.8 12.7 3.3 10.3-6.5 4.1-10.9 11-2.5 4 1.2 6.3 0.5 11.2-0.7 5.3-2.5 6-4.1 11.7-2.1-1.4-3.6-5.2-6.1-5.4-3-0.3-2.6 2.9-6.1 1.6-5.3-2-10.3-5.9-15.8-8-3.2 9.8-5.5 9.5-11.4 15-0.8 0.7 0.8 4.6-0.9 6-3.6 2.8-5.4-3.9-4.7 3.6-6-3.1-3.4 7.8-6.4 10.8-1 1-3.9 1.7-5.6 2.8 0.6-0.4-10.1 3.8-10.7 4-3.9 1.4-10.7 6.4-15.2 4.5-9-3.7-1.9-14.3-5.8-18.9 0.3-0.4-10.6 3.2-10.5 3.2-1.4-0.6-5.4-7.4-5.8-9.3-0.1-0.4-2.5-1.2-2.7-2.2-0.3-1.3 2.9-3.9 3-3.6-0.9-2.1-3.6-8.5-3.6-8.2-0.7 0.5-1.4 0.9-2.1 1.3-0.4-0.9-2.1-7.2-2-4.8 1.6-2.7 2.3-5.7 2.1-8.8 0.5 4.6-4.3-3.5-4-2.9-2.3-3.4 3-7-5.5-6.3 3.2-4.3 5.8-15 2.6-19.7-3.2-4.7-9.1-2.7-13.5-5.4-7-4.3-5.7-7.6-7.7-14.9-1.7-6-5.3-8.1-7.1-11.5-3.7-6.9 0.9-13.3-0.1-22-1-8.9-11.8-20.7-20.6-24.1-1.2 7.5-7 37.9-20.6 30.8-2.5-1.3-2.8-7.6-5.7-7.9-4.6-0.5-3.5 5.5-5.2 6.3-1.5 0.7 0.5 4.6-3.4 5.1-4.3 0.6-3.6-7.6-9.3-8.1 0.6-5.8 10.4-9.2 12.8-15.1 2.3-5.7 1.3-9.5-0.4-15-1.8-2.4-3.6-4.8-5.3-7.3-0.1-2.7 0.4-5.4 1.4-7.9-1.1-4.9-2.9-8-4.7-12.4-2.8-6.9-7.5-11.2-3-20 4.8-9.3 16.6-16.7 23.6-24.2 10.5-11.2 0.1-13.6-1.4-24.9-0.6-4.6 5.4-27.9 9-31.4 3.3-3.3 3.9-1.6 7.1-2.1-0.4 3.8 1.2 5 4.8 3.6 1.3-1.1 2.8-1.8 4.4-2.2 1.4 0.3 3.9-1.4 5.2-1.1 4 1 2.7 5.4 6.4 6.2z" fill="#E080B1" p-id="4851"></path><path d="M611.2 486.8c-2 2.3-4.2 4.6-6.3 6.8 0.3-0.1 0.4-0.3 0.2-0.7 5 6.3 2.8 12.1 0 20.7-0.6-0.1-2.9-0.4-2.6-0.3-0.9-1.2-0.6-0.4-0.9-0.7 5.1-5.5-9.1-14.6-11.9-16.5-0.4-0.3-7.1-2.4-4.9-0.6-1.8-1.5-2.9-4.9-4.3-5.8-2-1.3-6.6-4.7-11-7.5-0.1 0 2.7 0.9 2.7 1 0.5-1.5-4.6-0.3 1.5-1.2-1.3 0.2-7.7-0.9-4.3-2.6-0.9 0.4-1.3 0.1-1.2-0.8-4.9 4.8-13.7 16.7-17.7 24.8-1.1-3-3-3.3-5.7-3.9-2.6 3.1-4.4 2.9-5.3-0.6-1.2-1.8-2.3-3.6-3.4-5.4-5.8-7.5-10.6-18.4-12.9-27.4-4.2-16.6 1.6-24.5 15.7-29.8 12.4-4.7 22.1-3.4 33.7 0.3 4.1 1.3 8 3.6 12.2 4.6 1.4 0.3 4-2.7 4.6-2.4 3.3 1.3 9.8 8.7 11.8 13.3-4.2-3.6-0.1 5.1 1.4 6.4 1.4-3.1 3.4-3.5 5.8-1.3 1.9 1.3 2.2 2.6 0.8 4 5.6 6.3 4 17.3 2 25.6z" fill="#C7E8FA" p-id="4852"></path><path d="M527.4 554.8c-21.3-3.3 2.5 39.5-20.1 33.1-15.1-4.3-23.4-45.8-28.6-58.6-7.5-18.7 3.4-29 18.6-32.1 6.6-1.4 1.6-2.3 8.5-0.2 2.4 0.7 6.6 3 8.5 4.7 4.2 3.8 6.3 8.8 9.3 13.5 2.8 4.4 12.9 23.5 19.4 22.1-0.7 3.2-13 15.4-15.6 17.5z" fill="#F7C47E" p-id="4853"></path><path d="M961.4 370.6c0.1 0 0.3 0.2 0 0z m0.6 1.1c0.1 0.1 0.2 0.8 0 0z m0.2 0c0.2-0.1 0.3-0.1 0 0z m-0.4-0.8c0 0.1 0-0.5 0 0z m0-0.8c-0.1 0 0.3 0 0 0z m-9.4-1.7h-0.1 0.1z m0.2 0.8c0.1 0.7-0.1-0.6 0 0z m0.2 0.2c0 0.2 0 0.2-0.1 0h0.1z m18.9-5.3c0.5-0.9-0.1 0.2 0 0z m-19 1c0.6-6.1-1.5-17-9-18.4-2.4-0.5-4.7 4.9-6.8 6.5-2.2 1.7 0 3.9-4 4.9-4 0.9-1-9.1-6.7-2.2-3.1 3.8 2.4 20.1-2.7 26.7-2.5-2-0.6 0.5-3.9 0.1-7.4-1-0.1-2.3-4.1-4.7-5.3-3.2-7.7-4.8-9.1-11.6-0.4-1.7 2-4.1 1.5-6.1-0.8-3.2-3.4-2.7-4.2-5-2.9-8.2-0.4-7.3-8.3-13.1-6.8-5.1-18-12.6-4.9-17.4 2.9-1.1 5.6 2.8 8.4 0.6 3.8-3 0.6-8.9 3.7-10-5.2-9-0.1-7.8 5.9-14.4 1.7-1.8 7.6-6 6.8-6.1-2.7-3.7 4.6-9 8.9-5.6-1.9-9.6 6.2-13 9.3-16 0-5.7 0-11.5 4.9-15 1.8-1.3 9.1-0.5 8.4 0 5-3.9 2-12 8.3-10.4 11 2.9 2.3 12.2 0.7 16.8-3.3 9.5 1.9 12.6 3 21.4 0.7 6-1.8 18.6-0.1 23.1 0.2 0.4 6.6 3.5 7.8 5.3 1.5 2.3 1.6 8.7 2.1 11.5 0.8 4.9 0.4 9.1 3 13.4 2.8 4.4 9 4.3 11.1 6.3 13.2 12-0.8 13.2-9.5 18-6.5 3.3-12.4 10.7-20.5 1.4z" fill="#D1E182" p-id="4854"></path><path d="M883 331c2.1 8.6 11.8 8.2 16.6 12.8 2.1 2 6.6 11.8 6.8 13.2 0.5 4.4-2 10.5 0 14.5 2.4 4.9 12.2 3.4 10 11-2.6-1.4-4.6-3.4-6.1-5.9 2 5.9-0.4 9.3-1.7 14.5-1.4-5.1-4.1-6.2-6.8-10.3-1.3-2-4.8 1.8-6.3-1.1-0.6-1.1 3.9-4.1 3-4.8 1.1 0.8-4.4-3.9-3.2-2-1.1-1.9-7.5 5.8-6.4-4.6-6.3 2.7-5.3 13.8-11.8 10.8-0.5 5.5 4.3 8 4.1 14.9-0.1 2.3-2.3 9-3 10.6-1.5 3.6-11.3 20.1-8.3 19.5-3.5 9.3 1 7.7 5.3 13.1 2.4 3.1 5.7 9.1 9.5 9.9-0.5-0.1-0.9 0.1-1.2 0.3 6.7 2.7 9-9.8 17.2-8.8 5.9 0.7 5.1 0.6 7.5 5.6 6 12.4-10.2 23.9-21.3 23.5-11.7-0.4-19.1 0.6-27.3 2.2-2.2 0.4-2.3 3.3-4.8 3.7-7.2 0.9-14.6-13.5-20.5-5.7-2.6-3.6-2.2-4.2-0.5-7.6-5.5 10.2-3.5-6.3-3.1-8.8-1.8 2.7-1.9 4.4-4-0.5 10 2.2-1.1-26.2-9.2-12.6-2.4-4.9-8.8-6.2-11.6-10.5-1.3-2-6.8-12.2-1-5.5-1.6-8.5 3.9-4.6 5.5-9.2 1.4-4 1.4-2.9 2.1-7 1.4-8.5-2.5-12.4-9.2-14.3-6.2-1.8-2.8 4.3-8.3 0.2 0.9 0.7-8.3-16.5-8.3-16.3-0.4-2.5 2.5-8.7 4.4-10.3 5.9-5.2 2.5-1.6 7.3-1.3 2.8 0.2 2.3 3.2 7.5 2.4 8.6-1.2 3.5-5.8 5.7-12.7 2.4-7.6 0.3-8.1 7.1-8.7 1.8 1.8 3.6 3.5 5.5 5.2 1.1-1.2 2.2-2.3 3.3-3.5 4.3-0.9 4.1-5.6 9.5-5.3 1.2 0.1 7.7 6.3 10.2 7 16.6 5 8.9-9.8 19.4-16.8-0.4 0.5-0.7 1-0.7 1.6 7-5.4 9.7-12 17.1-2.4z m24.6 116.8c0.3 0.6 0.6 1.1 0 0z m-12.3 20.4c-0.1 0 0.3 0 0 0z m-2.1-1.4c-0.2 0.1 0.8-0.4 0 0z" fill="#F7C47E" p-id="4855"></path><path d="M248.8 401.8c0.3-0.8 0.6-1.5 0.9-2.3 5 1.9 7.3 5.6 10.5 9.6 3.7-4.3 6.5-2.3 8.4-8.9 1.3 2.8 4.8 5.2 5 8.4 0.1 1.3-2.3 6.3-2.3 6.5 1.3 4.2-1.9 2.2 4.3 7.4 6.1 5.2 17.2 8.1 25 9.4 7.1 1.3 17.6-1.4 24.2 1.8 5.3 2.6 4.6 7.3 11.5 8.6 4.8 1 13.4-0.5 18.1-2.2 9.7-3.6 12.9-11.9 13.3 2.5 0.2 7.1-5.5 13.9-3.3 21.9-1.3-0.3-2.5-0.6-3.7-1 0.2 3.8 15.3 20.5 7.6 27.3 2.8 1.1 5.3 0.6 7.6-1.3 3.3 4.5 0.1 12.9 3.2 16.8 5.5 7 2.6-2.7 7.4-0.1 2.9 1.6 8.5 6 6.6 12.8-4.5 16.1-7.8-3.2-10.3-7.3-6.9 4.8-3.4 23.4-11 17.2 8.8 6.9-5-0.7-4.2-1.3-2.5 2 0.8 5.6-0.3 8-1.8 3.6-4.6 5.1-6.2 8.9-0.7 1.8-1.3 3.5-2 5.3 2 4.3 1.1 6.5-2.9 6.3-0.9 1.8-4.4 0.1-3.9 6.7-2.3-2.7-4.2-5.5-6-8.6-1.9 1-3.8 0.8-5.7-0.4-3.4-2.5-6.9-4.9-9.5-8.3-6.5-8.5-4.2-18.6-8.3-28.3-6.7 8.6-7.3 13.1-17.2 6.1 2.6-1.2 1.7-2.1 4.7-1.2-1.4-6.3 0.8-7.1-2.4-14.4-5.7 7.3-10.1 17.7-15.3 25.9-3 4.8 0.6 5.6-5.2 8.5-3.2 1.6-3.6-5.7-7.5-1.9 1-14.1-8.5-2.8-13.6 1.5-1.1 1-2.5-2.5-4.2-0.6-1.2 1.4-1.1 5.3-2.1 6.1-6.9 5.3-2.7 5.6-7.4-3-2.4-4.4 1.9-5.7-4.7-7.9-3.1-1.1-9.8 2.8-11.6 4.9-0.4-3.9 6.3-10 6.3-10.3-1.1-6.1-6.6-4.3-11.1-6.1-7.1-2.9-7.7-3.7-11.7-10.4-1.2-2-2.8-6.3-3.6-8.2-0.7-1.6-6.5-3-7.7-5 15-3.2 24.8-4.6 33.5-19.3 4.4-7.4 4.7-16 7-22.4 1.8-5.1 7.7-10.1 7.2-16.7-6.9 6.7-7.1-9.2-6.6-8.6-2-2.5 0.5-11.8-0.1-16.7-1.1-8-5.8-6.4-0.7-15.7z" fill="#6EC7DD" p-id="4856"></path></svg>